<svg version="1" xmlns="http://www.w3.org/2000/svg" width="4800" height="4800" viewBox="0 0 3600.000000 3600.000000"><path d="M494.2 626.7c-6.4 46-10 81.1-12.8 122.8-2.1 32.6-3 128.2-1.5 165.5 7.4 183.2 38.4 372.8 100.5 614.8l7.6 29.3-9.8 13.7c-67.6 94.3-119.4 201-155.1 319.2-1.7 5.8-2.2 6.5-4.3 6.2-1.2-.1-61.2-13.3-133.3-29.3-124.3-27.6-131.4-29.1-139-28.7-14.3.8-26.7 9.2-33 22.3-4 8.4-4.7 20.5-1.6 29.6 4.1 12 12.9 21 24.6 24.8 3.3 1.1 64.3 14.9 135.5 30.7 71.2 15.8 129.6 28.7 129.7 28.8.1.1-.9 5.6-2.2 12.1-8.7 42.1-16.9 105.9-19.1 146.7l-.7 12.8-124.1.2-124.1.3-6 2.9c-7.7 3.8-15.3 11.4-19.1 19.1-2.7 5.5-2.9 6.9-2.9 17s.2 11.5 2.9 17c3.8 7.7 11.4 15.3 19.1 19.1l6 2.9 123.6.3 123.7.2.6 15.8c2.2 49 7.9 100.1 16.1 141.6 1.8 9.4 3 17.4 2.7 17.7-.4.3-59.2 13.5-130.7 29.4-83.2 18.4-131.8 29.6-135 31.1-14.1 6.6-22.5 20-22.5 36.1 0 21.9 17.2 39.3 39 39.3 4.9 0 38.8-7.2 137-29 71.8-16 131.2-29 132-29 1 0 2.8 3.9 5.8 12.8 17.4 51.4 44.7 107 73.6 149.7 71.4 105.6 174.6 183.8 310.3 234.9 144.1 54.3 327 83.4 603.3 96.1 132.7 6.1 231.9 8 415.5 8 170 0 235.9-1.2 345.5-6 306-13.6 512.7-52.7 670.5-126.8 127.1-59.7 224.5-146.2 289.4-257.2 9.3-15.9 25.6-47.9 32.2-63.3 2.4-5.6 4.7-10.2 5.1-10.2.5 0 62.6 13.7 138 30.5 103.4 23 138.9 30.5 143.8 30.5 12.5 0 24.6-6.2 31.7-16.2 14.8-20.6 6-51.4-17.2-60.2-2.2-.8-62.9-14.6-135-30.6-72-16-131.8-29.3-132.8-29.6-1.3-.4-1.7-1.2-1.4-2.7.3-1.2 2.8-11 5.5-21.7 10.5-40.6 18.6-87.5 22.2-129 .6-6.9 1.3-14.4 1.6-16.7l.5-4.3 121.2-.2 121.2-.3 6-2.9c7.7-3.8 15.3-11.4 19.1-19.1 2.7-5.5 2.9-6.9 2.9-17s-.2-11.5-2.9-17c-3.8-7.7-11.4-15.3-19.1-19.1l-6-2.9-120.2-.3-120.3-.2v-15.4c0-38.5-5.5-101.5-12.5-144.5-1.3-8-2.3-14.7-2.1-14.8.2-.2 56.1-12.7 124.2-27.9 68.1-15.1 125.7-28.2 127.9-29 10.1-3.8 18.9-13.2 22.6-24.3 3.1-9.1 2.4-21.2-1.6-29.6-6.3-13.1-18.7-21.5-33-22.3-7.6-.4-14.5 1-132.4 27.2-68.4 15.2-124.5 27.5-124.7 27.3-.2-.2-2.6-8.4-5.4-18.3-41.1-145.2-113.2-278.6-212.2-392.7-4.3-5-7.8-9.4-7.8-9.7 0-.4 3.8-16.2 8.4-35.1 53-215.8 79.8-384.7 87.6-552.4 4.7-101.7-.4-213.4-13.7-299.3-1.4-9.2-1.8-10.2-3.7-10.2-9.5 0-92.3 19.8-142.6 34-167.5 47.5-341.1 112.5-509 190.5-29.8 13.9-115.3 56.5-145.5 72.5-87.7 46.6-182.4 103-269.2 160.2-23.7 15.6-24.3 15.9-28.5 15.4-2.4-.4-17.1-1.3-32.8-2.1-102-5.4-213.6-4.7-314.5 1.9l-19 1.3-17.5-11.7c-96.7-64.5-204.3-127.8-311.5-183.2-202.3-104.7-449.7-200.5-661-256.2-37.6-9.9-94.6-22.6-101.3-22.6-1.6 0-2 1.3-3 8.7zM629.5 733c143.7 41.1 305.1 100.8 449.5 166.3 159.1 72 297.1 148.8 451.7 250.9l36.3 24 30.7-2.1c70.1-4.8 115.1-6.3 185.8-6.3 68.8.1 112.8 1.6 181.5 6.3l16.6 1.2 22.4-15c150-100.1 292.1-180 445.9-250.7 152.5-70.2 323.7-133.8 474.6-176.5 47-13.3 56.5-15.7 57.4-14.2.5.7 1.3 9 2 18.4 5.1 74.2 5.3 147 .6 221.7-10 159.7-37.3 319.4-91.2 534.3l-11.4 45.8 10.3 11.6c22.6 25.4 35.5 40.3 46.7 54.2 70.3 87 123.9 183.9 159.2 288 7.8 22.9 19.4 61.9 18.7 62.6-.2.2-59.1 13.5-130.8 29.4-71.8 16-132.5 29.7-135 30.6-10.3 3.6-19.3 13-23.1 24.4-3.1 9.1-2.4 21.2 1.6 29.6 6.3 13.1 18.7 21.5 33 22.3 7.6.4 14.7-1.1 139.4-28.8 133.9-29.7 133-29.6 133.1-25.5 0 .6 1.3 10.2 3 21.4 4.8 33.2 8.2 75.2 9.3 117.8l.4 14.3-150.1.2-150.1.3-6 2.9c-7.7 3.8-15.3 11.4-19.1 19.1-2.7 5.5-2.9 6.9-2.9 17s.2 11.5 2.9 17c3.8 7.7 11.4 15.3 19.1 19.1l6 2.9 148.8.3 148.8.2-.6 4.8c-.3 2.6-1.2 11.4-2.1 19.7-3 29.4-8.8 64-15.5 92.5-5 21.2-10.2 39-11.3 39-.6 0-55.8-12.2-122.6-27-91.2-20.3-123.1-27-128-27-21.8 0-39 17.4-39 39.3 0 16.1 8.4 29.5 22.5 36.1 3.2 1.5 47.3 11.7 121.5 28.1 64.1 14.2 116.9 26.2 117.4 26.6.9.8-13.9 30.9-23.4 47.4-43.4 75.6-105.8 139.8-182.4 188C2729.8 2831 2509.9 2880 2165 2895c-204.7 8.9-506.5 8.3-734.5-1.5-273.2-11.8-454.2-39.4-590.8-90.4-49.7-18.5-96.5-42-134.7-67.4-31.3-20.7-53.5-39-81-66.6-42.1-42.2-71.2-83.7-98-139.4-12.2-25.4-28-66.1-26.3-67.7.4-.4 56.2-13 123.8-28 78.3-17.4 124.8-28.1 128-29.6 10-4.6 17.4-13.2 21-24.3 2.6-8.1 1.7-20.7-2-28.6-3.7-7.7-11.3-15.3-19-19-4.8-2.3-7.7-2.9-14.5-3.2-8.1-.4-14.1.8-133.8 27.5L478 2384.7l-1-3.6c-1.6-6.1-7.8-43.8-9.9-60.1-3.6-27.3-7.1-71.2-7.1-87.2v-6.8l146.3-.2 146.2-.3 6-2.9c7.7-3.8 15.3-11.4 19.1-19.1 2.7-5.5 2.9-6.9 2.9-17s-.2-11.5-2.9-17c-3.8-7.7-11.4-15.3-19.1-19.1l-6-2.9-145.9-.3-145.9-.2.7-12.8c1-19.2 4.3-49.8 8.2-77.2 3.7-25.6 10.2-62 11.3-63.2.3-.4 56.2 11.7 124.1 26.8 92.7 20.6 125.1 27.4 130 27.4 21.8 0 39-17.4 39-39.3 0-16.1-8.4-29.5-22.5-36.1-3.2-1.5-49.6-12.2-128-29.6-67.6-15-123.1-27.4-123.2-27.5-.2 0 2.9-10 6.7-22.1 23-72.9 55.5-144.9 94.7-210.2 18.6-31 34.4-54.5 61.4-90.9l12.8-17.2-6.5-24.8c-65.7-251-97.2-429.7-107.5-609.8-3.6-64-2.3-174 2.7-220.6l.6-5.5 16.7 4.3c9.1 2.4 30.6 8.4 47.6 13.3z"/><path d="M678.5 851.2c-.8 2.4-4.4 32.3-6 49.3-5.8 64.4-4.4 133.5 4 209.5 11.6 104 35.9 215.1 82.6 379 8.9 31.1 29.6 102.3 30.4 104.8.3.9 3.1-.6 8.2-4.5 17-12.6 55.4-39.7 105.8-74.8 127.6-88.8 160.9-113.7 340-255 34.1-26.9 75.3-59.2 91.5-71.8 16.2-12.6 29.8-23.2 30.2-23.6 1.2-1.1-62.4-44.5-103.7-70.7-121.6-77.2-245.7-137.3-388-187.9-64.3-22.8-136.8-44.1-180.8-52.9-15-3-13.7-2.9-14.2-1.4zM2855 853c-59.4 12.6-148.4 40.2-227.5 70.5-121.2 46.5-231.8 101.9-339 169.9-41.1 26.1-104.9 69.6-103.7 70.7.4.4 14 11 30.2 23.6 16.2 12.6 57.4 44.9 91.5 71.8 178.7 141 213.2 166.8 340 255 50.4 35.1 88.7 62.2 105.8 74.8 5.1 3.9 7.9 5.4 8.2 4.5 2.5-7.4 37.4-129.2 46.5-162.4 53.9-196.9 76-336.1 73.7-465.4-.7-36.4-1.5-50-4.7-80-3.2-28.7-4.3-35.4-6-35.7-.8-.1-7.6 1.1-15 2.7zM2231 1838c-4.1 1.1-11.3 3.9-16 6.2-6.9 3.4-10.3 6-18 13.8-7.8 7.7-10.4 11.1-13.8 18-8.7 17.4-8.2 9.5-8.2 136s-.5 118.6 8.2 136c3.4 6.9 6 10.3 13.8 18 7.7 7.8 11.1 10.4 18 13.8 14.9 7.4 20 8.2 53.5 8.2s38.6-.8 53.5-8.2c6.9-3.4 10.3-6 18-13.8 7.8-7.7 10.4-11.1 13.8-18 8.7-17.4 8.2-9.5 8.2-136s.5-118.6-8.2-136c-3.4-6.9-6-10.3-13.8-18-7.7-7.8-11.1-10.4-18-13.8-15-7.5-19.9-8.2-53.9-8.1-25.9 0-30.5.3-37.1 1.9zM1294 1842c-4.1 1.1-11.3 3.9-16 6.2-6.9 3.4-10.3 6-18 13.8-7.8 7.7-10.4 11.1-13.8 18-8.7 17.4-8.2 9.5-8.2 136s-.5 118.6 8.2 136c3.4 6.9 6 10.3 13.8 18 7.7 7.8 11.1 10.4 18 13.8 14.9 7.4 20 8.2 53.5 8.2s38.6-.8 53.5-8.2c6.9-3.4 10.3-6 18-13.8 7.8-7.7 10.4-11.1 13.8-18 8.7-17.4 8.2-9.5 8.2-136s.5-118.6-8.2-136c-3.4-6.9-6-10.3-13.8-18-7.7-7.8-11.1-10.4-18-13.8-15-7.5-19.9-8.2-53.9-8.1-25.9 0-30.5.3-37.1 1.9z"/></svg>