<svg xmlns="http://www.w3.org/2000/svg" viewBox="0 0 814.56 567.36"><defs><style>.cls-1{fill:#fff}.cls-1,.cls-2,.cls-3{fill-rule:evenodd}.cls-2{fill:#f9b5b6}</style></defs><title>InvoiceNeko</title><g id="InvoiceNeko" data-name="Invoice Neko"><g id="Body" data-name="Body"><path d="M413.72,557.36l-9.07,0-9.09-.07q-9.06-.09-18.05-.22c-12.72-.18-24.33-.43-35.51-.76-26.51-.78-47.94-1.91-67.43-3.55-48.66-4.12-84.22-11.74-111.91-24-30.95-13.65-53.76-34.65-67.82-62.41-7.21-14-12.39-30.15-15.43-47.93a223,223,0,0,1-2.9-27.27c-.11-2.31-.19-4.68-.23-7.07,0-1.18,0-2.37,0-3.56s0-2.38,0-3.58c0-4.77.22-9.65.53-14.51,3.49-47.78,20-93,47.77-130.56l2.84-3.85-1.21-4.62c-6-22.73-10.71-43.18-14.55-62.53-11.25-57-14.17-105.89-8.88-149,13.48,3,33.7,8.57,56.52,16.24a829.7,829.7,0,0,1,84.49,33.52,751.29,751.29,0,0,1,73.4,38.94c10.92,6.59,22,13.64,33.86,21.55l2.85,1.9,3.42-.24c14-1,28.78-1.58,43.81-1.68h1.28q3.39,0,6.76,0c2.69,0,5.36.07,8,.13,5.33.13,10.69.32,15.92.58,3.59.18,7.34.4,11.82.71l3.4.24,2.84-1.89c11.74-7.83,22.72-14.81,33.55-21.33a753.75,753.75,0,0,1,73.41-38.94A830.55,830.55,0,0,1,642.62,28.1c22.84-7.67,43.07-13.22,56.56-16.24,5.29,43.08,2.37,92-8.89,149-3.25,16.38-7.13,33.43-11.87,52.11l-1.3,5.14,3.52,4A233,233,0,0,1,738.5,350.82a266.78,266.78,0,0,1,1.5,27.55v1.69c0,.57,0,1.13,0,1.7,0,1.12,0,2.24-.07,3.36-.06,2.24-.15,4.49-.27,6.68-.25,4.42-.63,8.83-1.14,13.09a171.67,171.67,0,0,1-12.42,48c-12.52,29.45-33.72,52.43-63,68.34C604.05,553.81,515.23,556.87,413.72,557.36Z" class="cls-1"/><path d="M690.42,24.25c3.43,39.28.14,83.58-9.93,134.63-3.22,16.21-7.07,33.1-11.76,51.61l-2.6,10.28,7,7.92a223.1,223.1,0,0,1,55.38,123.19A256.16,256.16,0,0,1,730,378.36V380c0,.54,0,1.09,0,1.62,0,1.07,0,2.15-.06,3.23-.06,2.12-.15,4.27-.27,6.38-.23,4.22-.6,8.42-1.08,12.49a162,162,0,0,1-11.67,45.19l0,.05,0,0c-11.59,27.28-31.3,48.61-58.58,63.42l-.06,0-.07,0c-25.81,14.26-60.58,23.74-106.28,29-43.73,5-92.22,5.66-138.16,5.88l-9,0-9.06-.07c-6.11-.06-12.16-.13-18-.22-12.74-.18-24.31-.43-35.35-.75-26.33-.78-47.58-1.9-66.89-3.53-47.52-4-82.06-11.38-108.73-23.18-28.76-12.69-49.93-32.13-62.91-57.78l0-.05,0-.06c-6.72-13.07-11.58-28.21-14.45-45a215.11,215.11,0,0,1-2.77-26.05c-.1-2.24-.17-4.52-.21-6.79,0-1.14,0-2.28,0-3.41s0-2.31,0-3.46c0-4.54.21-9.21.5-13.86,3.38-46,19.23-89.31,45.84-125.36l5.68-7.7-2.42-9.24C130,198.3,125.24,178,121.44,158.91c-10.07-51.08-13.36-95.38-9.93-134.65,12.18,3.12,27.63,7.62,44.62,13.33a828.42,828.42,0,0,1,83.45,33.12A742.32,742.32,0,0,1,312,109.13c10.78,6.5,21.73,13.47,33.47,21.3l5.7,3.8,6.83-.49c13.82-1,28.31-1.55,43.08-1.65h1.23c2.26,0,4.52,0,6.72,0,2.66,0,5.32.07,7.91.13,5.25.12,10.51.31,15.66.57,3.47.17,7.27.4,11.62.7l6.8.47,5.67-3.78c11.62-7.74,22.47-14.64,33.18-21.09a743.86,743.86,0,0,1,72.45-38.44,830.69,830.69,0,0,1,83.5-33.11c17-5.7,32.42-10.2,44.6-13.33M707.61,0c-13.9,2.26-40.17,9.22-68.16,18.62a846.52,846.52,0,0,0-85.53,33.92A760.19,760.19,0,0,0,479.54,92c-12,7.25-23.24,14.45-33.94,21.58q-6-.42-12-.73-8-.39-16.17-.58c-2.71-.07-5.44-.11-8.17-.14q-3.45,0-6.93,0H401q-22.72.15-44.46,1.7c-10.79-7.2-22.1-14.47-34.25-21.79A759.75,759.75,0,0,0,248,52.54a845.26,845.26,0,0,0-85.51-33.92C134.48,9.22,108.22,2.26,94.31,0c-8.27,52.69-3,109.39,7.51,162.78,4.29,21.6,9.33,42.66,14.68,63.11-27.74,37.59-45.93,84.33-49.7,135.87q-.48,7.58-.55,15c0,1.24,0,2.48,0,3.72s0,2.47,0,3.71q.06,3.69.24,7.35a233.89,233.89,0,0,0,3,28.49c3.15,18.42,8.57,35.57,16.37,50.75,15.48,30.58,40.46,52.83,72.69,67.05S230.24,559,273.73,562.68c21.74,1.84,44.52,2.9,68,3.59q17.6.51,35.65.76,9,.13,18.11.22l9.12.07,9.14,0c97.67-.47,192.08-3.1,254.09-37.35,31.11-16.89,54.12-41.83,67.45-73.17a181.75,181.75,0,0,0,13.17-50.78q.79-6.76,1.18-13.7.2-3.47.29-7c0-1.17.05-2.34.07-3.51,0-.59,0-1.17,0-1.76v-1.77a274,274,0,0,0-1.57-28.68A243.16,243.16,0,0,0,688.12,215.4c4.34-17.14,8.42-34.7,12-52.62C710.64,109.39,715.89,52.69,707.61,0Z"/></g><g id="Left_Ear" data-name="Left Ear"><path d="M268.76,108.36a436,436,0,0,0-42.59-22.59,486.77,486.77,0,0,0-49-19.43c-16-5.38-31.07-9.37-39-10.66-4.74,30.18-1.73,62.64,4.3,93.21s14.84,59.58,22.39,85.59c20.8-15.46,45.41-31.09,69.26-49.65,12.09-9.13,24.27-18.8,36.2-28.21s23.45-18.49,32.8-25.69C292.53,123.55,281.44,116,268.76,108.36Z" class="cls-2"/></g><g id="Right_ear" data-name="Right Ear"><path d="M664.39,55.68c-8,1.29-23,5.28-39,10.66a486.77,486.77,0,0,0-49,19.43,437.19,437.19,0,0,0-42.59,22.59C521.12,116,510,123.55,499.44,130.93c9.35,7.2,20.95,16.31,32.8,25.69s24.11,19.08,36.2,28.21c23.85,18.56,48.46,34.19,69.26,49.65,7.55-26,16.29-54.89,22.39-85.59S669.13,85.86,664.39,55.68Z" class="cls-2"/></g><g id="Left_Eye" data-name="Left Eye"><rect width="44.88" height="84.48" x="272.4" y="293.28" rx="17.88" ry="17.88"/></g><g id="Right_Eye" data-name="Right Eye"><rect width="44.88" height="84.48" x="497.28" y="292.32" rx="17.88" ry="17.88"/></g><g id="Top_Right_Whisker" data-name="Top Right Whisker"><path d="M812.62,310.54a9.48,9.48,0,0,0-11.31-7.2L661,334.56a9.48,9.48,0,1,0,4.11,18.5l140.33-31.21A9.48,9.48,0,0,0,812.62,310.54Z" class="cls-3"/></g><g id="Middle_Right_Whisker" data-name="Middle Right Whisker"><path d="M805.08,377H661.32a9.48,9.48,0,0,0,0,19H805.08a9.48,9.48,0,0,0,0-19Z" class="cls-3"/></g><g id="Bottom_Right_Whisker" data-name="Bottom Right Whisker"><path d="M805.42,451.91,665.09,420.7A9.48,9.48,0,1,0,661,439.21l140.33,31.21a9.48,9.48,0,0,0,4.11-18.51Z" class="cls-3"/></g><g id="Top_Left_Whisker" data-name="Top Left Whisker"><path d="M153.58,324.72,13.25,293.51A9.48,9.48,0,1,0,9.14,312l140.33,31.22a9.48,9.48,0,1,0,4.11-18.51Z" class="cls-3"/></g><g id="Middle_Left_Whisker" data-name="Middle Left Whisker"><rect width="162.72" height="18.96" y="367.2" rx="9.48" ry="9.48"/></g><g id="Bottom_Left_Whisker" data-name="Bottom Left Whisker"><path d="M160.78,418.06a9.48,9.48,0,0,0-11.31-7.2L9.14,442.07a9.48,9.48,0,1,0,4.11,18.5l140.33-31.2A9.48,9.48,0,0,0,160.78,418.06Z" class="cls-3"/></g></g></svg>