<svg xmlns="http://www.w3.org/2000/svg" viewBox="0 0 1775.03 1329.27"><defs><style>.cls-1{fill:#b8dff4}.cls-2{fill:#89c2db}.cls-3{fill:#0f8253}.cls-4{fill:#62c29c}.cls-5{opacity:.25}.cls-6{fill:#fff}.cls-7{fill:#e2e2e2}.cls-8{fill:#6db3e2}.cls-9{fill:#e5e5e5}.cls-10{fill:#5f6571}.cls-11{fill:#ffdd50}.cls-12{fill:#dda20e}.cls-13{fill:#ffc628}.cls-14{fill:#d89829}.cls-15{fill:#dbdbda}.cls-16{fill:#5c6169}.cls-17{fill:#e0a126}.cls-18{fill:#dddddc}.cls-19{fill:#3980b2}.cls-20{fill:#c091ba}.cls-21{opacity:.4}.cls-22{fill:#5acaf4}.cls-23{fill:#8dd7f7}.cls-24{opacity:.7}.cls-25{fill:#60b3e4}.cls-26{fill:#3bc5f3}.cls-27{fill:#ff554d}.cls-28{fill:#6fc7b7}.cls-29{fill:#22809f}.cls-30{fill:#ed7955}.cls-31{fill:#926f8d}.cls-32{opacity:.1}.cls-33{fill:#5096d1}.cls-34{fill:#d79f29}.cls-35{fill:#e52828}.cls-36{fill:#e5e5e4}.cls-37{fill:#3294bf}.cls-38{fill:#d8d8d7}.cls-39{fill:#ffc440}.cls-40{fill:#fcb526}.cls-41{fill:#dd9a27}.cls-42{fill:#41444c}.cls-43{opacity:.3}.cls-44{fill:#59b0e1}.cls-45{opacity:.5}.cls-46{fill:#fbd8da}.cls-47{fill:#ffd880}.cls-48{fill:#866181}.cls-49{fill:#434c55}.cls-50{fill:#596273}.cls-51{fill:#9fa5ad}.cls-52{fill:#ff884d}.cls-53{fill:#62cef4}.cls-54{fill:#73c9ee}</style></defs><title>Asset 2</title><g id="Layer_2" data-name="Layer 2"><g id="Layer_1-2" data-name="Layer 1"><polygon points="967.74 1044.25 527.47 1180.03 355.2 621.42 795.49 485.65 967.74 1044.25" class="cls-1"/><polygon points="490.57 635.32 412.74 659.3 408.21 644.62 486.05 620.61 490.57 635.32" class="cls-2"/><polygon points="767.67 549.86 635.54 590.6 631.01 575.91 763.12 535.16 767.67 549.86" class="cls-2"/><rect width="373.08" height="15.37" x="413.66" y="626.51" class="cls-2" transform="translate(-160.25 205.06) rotate(-17.14)"/><polygon points="791.9 622.77 435.38 732.72 430.84 718.03 787.37 608.09 791.9 622.77" class="cls-2"/><rect width="373.07" height="15.38" x="436.01" y="698.92" class="cls-2" transform="translate(-180.58 214.83) rotate(-17.14)"/><polygon points="814.23 695.19 457.72 805.15 453.19 790.43 809.7 680.51 814.23 695.19" class="cls-2"/><rect width="373.09" height="15.38" x="458.33" y="771.34" class="cls-2" transform="translate(-200.94 224.64) rotate(-17.14)"/><polygon points="836.56 767.6 480.05 877.57 475.51 862.87 832.02 752.91 836.56 767.6" class="cls-2"/><polygon points="847.74 803.82 491.21 913.76 486.69 899.07 843.2 789.12 847.74 803.82" class="cls-2"/><polygon points="858.89 840.03 502.38 949.98 497.84 935.28 854.37 825.33 858.89 840.03" class="cls-2"/><polygon points="870.07 876.24 513.53 986.17 509.02 971.5 865.53 861.54 870.07 876.24" class="cls-2"/><polygon points="881.23 912.45 524.71 1022.38 520.17 1007.71 876.7 897.74 881.23 912.45" class="cls-2"/><polygon points="892.4 948.64 535.88 1058.6 531.34 1043.91 887.86 933.96 892.4 948.64" class="cls-2"/><polygon points="903.56 984.86 547.04 1094.81 542.49 1080.12 899.04 970.16 903.56 984.86" class="cls-2"/><polygon points="914.73 1021.08 558.21 1131.02 553.68 1116.34 910.2 1006.37 914.73 1021.08" class="cls-2"/><rect width="373.07" height="15.38" x="436.01" y="698.92" class="cls-2" transform="translate(-180.58 214.83) rotate(-17.14)"/><rect width="134.98" height="304.09" x="160.83" y="285.16" class="cls-3" transform="translate(-264.84 428.82) rotate(-61.45)"/><rect width="119.66" height="288.78" x="168.5" y="292.82" class="cls-4" transform="translate(-264.84 428.83) rotate(-61.45)"/><path d="M277.19,463.79a55.63,55.63,0,1,1-22.28-75.44A55.63,55.63,0,0,1,277.19,463.79Z" class="cls-3"/><path d="M241,404.33l2.53-4.65,8.05,4.37-2.53,4.66c6.2,5.23,6.87,12.54,2.23,21.05l-1.06,2-9.32-5.06,1.41-2.59c2.44-4.48,1.57-7.15-1.55-8.86s-5.85-1-8.28,3.51c-7,12.88,11.89,24,2.15,41.86-4.62,8.5-11.27,12-19,9.6l-2.48,4.57-8.05-4.38,2.48-4.57c-6.29-5.28-6.91-12.69-2.28-21.19l2.34-4.3,9.3,5.06-2.68,4.93c-2.43,4.47-1.33,7.15,1.8,8.86s6,1.16,8.41-3.31c7-12.89-11.88-24-2.15-41.86C226.87,405.57,233.28,402.1,241,404.33Z" class="cls-4"/><path d="M106.86,342.3a42.16,42.16,0,0,0,57.19-16.89l-37-20.15Z" class="cls-3"/><path d="M357.1,430.44A42.17,42.17,0,0,0,374,487.63l20.16-37Z" class="cls-3"/><path d="M349.78,532.12A42.17,42.17,0,0,0,292.59,549l37,20.15Z" class="cls-3"/><path d="M82.66,386.79l-20.15,37,37,20.15A42.15,42.15,0,0,0,82.66,386.79Z" class="cls-3"/><path d="M154.09,396.82a18.6,18.6,0,1,1-7.45-25.23A18.6,18.6,0,0,1,154.09,396.82Z" class="cls-3"/><path d="M335.24,495.38a18.6,18.6,0,1,1-7.45-25.23A18.61,18.61,0,0,1,335.24,495.38Z" class="cls-3"/><g class="cls-5"><polygon points="380.05 442.92 378.35 442 103.5 348.48 62.51 423.82 329.63 569.15 349.56 532.52 380.05 442.92"/></g><rect width="134.98" height="304.09" x="139.53" y="309.15" class="cls-3" transform="translate(-296.28 508.62) rotate(-71.21)"/><rect width="119.66" height="288.78" x="147.19" y="316.81" class="cls-4" transform="translate(-296.28 508.63) rotate(-71.21)"/><path d="M259.68,479.12a55.63,55.63,0,1,1-34.74-70.58A55.62,55.62,0,0,1,259.68,479.12Z" class="cls-3"/><path d="M213.94,426.65l1.7-5,8.67,2.95-1.7,5c7,4.1,8.9,11.19,5.77,20.37l-.72,2.11-10-3.41,1-2.79c1.64-4.83.33-7.32-3-8.46s-5.92,0-7.56,4.85c-4.73,13.88,15.78,21.61,9.21,40.9-3.11,9.15-9.07,13.7-17.12,12.68l-1.68,4.92-8.67-2.95,1.67-4.92c-7.09-4.14-9-11.34-5.84-20.5l1.58-4.64,10,3.42-1.8,5.31c-1.64,4.81-.1,7.28,3.28,8.43s6.08.13,7.72-4.69c4.72-13.89-15.77-21.61-9.21-40.89C200.22,430.26,206,425.75,213.94,426.65Z" class="cls-4"/><path d="M71.23,388.25a42.17,42.17,0,0,0,53.5-26.34L84.81,348.33Z" class="cls-3"/><path d="M332.78,432.7a42.17,42.17,0,0,0,26.33,53.5l13.59-39.92Z" class="cls-3"/><path d="M342.8,534.15a42.16,42.16,0,0,0-53.49,26.33l39.91,13.58Z" class="cls-3"/><path d="M54.92,436.2,41.33,476.11l39.92,13.58A42.16,42.16,0,0,0,54.92,436.2Z" class="cls-3"/><path d="M127,434a18.6,18.6,0,1,1-11.62-23.6A18.6,18.6,0,0,1,127,434Z" class="cls-3"/><path d="M322.25,500.4a18.61,18.61,0,1,1-11.63-23.6A18.61,18.61,0,0,1,322.25,500.4Z" class="cls-3"/><g class="cls-5"><polygon points="358.01 441.28 341.38 435.63 70.71 389.77 41.33 476.11 81.25 489.69 329.22 574.07 341.75 537.24 358.01 441.28"/></g><rect width="134.98" height="304.09" x="123.03" y="332.43" class="cls-3" transform="translate(-318.97 591.39) rotate(-80.38)"/><rect width="119.66" height="288.78" x="130.7" y="340.09" class="cls-4" transform="translate(-318.97 591.39) rotate(-80.38)"/><path d="M245.37,493.77a55.63,55.63,0,1,1-45.56-64.14A55.63,55.63,0,0,1,245.37,493.77Z" class="cls-3"/><path d="M191.84,449.26l.89-5.22,9,1.53-.89,5.22c7.57,2.93,10.57,9.63,8.95,19.19l-.37,2.2L199,470.41l.49-2.9c.85-5-.83-7.28-4.35-7.87s-5.84,1-6.69,6c-2.45,14.45,19,18.81,15.62,38.9-1.62,9.54-6.77,15-14.89,15.25l-.87,5.13-9-1.53.87-5.13c-7.66-3-10.65-9.77-9-19.31l.82-4.82,10.45,1.77-.94,5.53c-.85,5,1.06,7.2,4.58,7.8s6-.85,6.87-5.86c2.45-14.47-19-18.82-15.61-38.9C178.88,455,183.81,449.65,191.84,449.26Z" class="cls-4"/><path d="M44.84,434.11a42.16,42.16,0,0,0,48.61-34.53l-41.57-7.05Z" class="cls-3"/><path d="M310.14,436.29a42.16,42.16,0,0,0,34.52,48.62l7-41.58Z" class="cls-3"/><path d="M336.2,534.84a42.16,42.16,0,0,0-48.61,34.53l41.57,7Z" class="cls-3"/><path d="M36.38,484l-7,41.57,41.56,7A42.16,42.16,0,0,0,36.38,484Z" class="cls-3"/><path d="M107.2,470.36A18.6,18.6,0,1,1,92,448.91,18.6,18.6,0,0,1,107.2,470.36Z" class="cls-3"/><path d="M310.53,504.81a18.61,18.61,0,1,1-15.24-21.45A18.6,18.6,0,0,1,310.53,504.81Z" class="cls-3"/><rect width="527.18" height="669.18" x="318.99" y="44.59" class="cls-6" transform="translate(-62.24 119.59) rotate(-11.13)"/><rect width="419.95" height="18.73" x="407.97" y="549.59" class="cls-7" transform="translate(-96.27 129.8) rotate(-11.13)"/><rect width="419.95" height="18.74" x="417.15" y="596.26" class="cls-7" transform="translate(-105.11 132.45) rotate(-11.13)"/><rect width="202.99" height="18.74" x="641.25" y="621.97" class="cls-7" transform="translate(-107.9 155.25) rotate(-11.13)"/><rect width="204.32" height="18.74" x="401.67" y="523.58" class="cls-7" transform="translate(-93.4 107.28) rotate(-11.13)"/><rect width="204.32" height="18.74" x="392.49" y="476.91" class="cls-7" transform="translate(-84.57 104.63) rotate(-11.13)"/><rect width="157.2" height="18.74" x="649.89" y="430.91" class="cls-7" transform="matrix(0.98, -0.19, 0.19, 0.98, -71.29, 148.9)"/><rect width="157.2" height="18.74" x="659.07" y="477.57" class="cls-7" transform="translate(-80.12 151.55) rotate(-11.13)"/><rect width="419.08" height="18.74" x="339.78" y="198.53" class="cls-7" transform="translate(-29.8 109.95) rotate(-11.13)"/><polygon points="320.39 131.99 324.65 153.65 331.67 189.29 334.25 202.43 335.93 210.97 499.12 178.86 497.44 170.32 494.85 157.19 487.84 121.55 483.58 99.88 320.39 131.99" class="cls-8"/><path d="M510.31,94.62l4.26,21.67,7,35.64,2.58,13.13,1.68,8.54L747.55,130l-1.68-8.54-2.58-13.13-7-35.65L732,51ZM722.72,75.34l7,35.64,1.59,8.12L536.74,157.38l-1.6-8.11-7-35.65-1.6-8.11,194.6-38.28Z" class="cls-7"/><path d="M617.13,233.48l-13.55,2.66L350.25,286l4.26,21.67,5.23,26.61,1.6,8.11,1,5,1.68,8.54L365.6,364l5.24,26.61,1.59,8.11,1,5,1.68,8.54,1.6,8.11L381.93,447l2.58,13.13,1.68,8.54,253.34-49.84,13.55-2.67,145.16-28.55-1.68-8.55L794,366l-5.24-26.6-1.59-8.12-1.68-8.54-1-5-1.59-8.12L777.65,283l-1.59-8.12-1.68-8.54-1-5-1.6-8.12-5.23-26.61-4.27-21.66ZM630,370.59l5.23,26.61,1.6,8.12L397.08,452.49l-1.6-8.12-5.23-26.61-1.6-8.11,239.78-47.17Zm-11.1-56.39,5.24,26.61,1.6,8.11L386,396.1l-1.6-8.12-5.23-26.61-1.6-8.11,239.78-47.17Zm-11.09-56.39,5.23,26.61,1.6,8.11L374.89,339.71l-1.59-8.12L368.06,305l-1.59-8.11L606.24,249.7ZM775.19,342l5.23,26.61,1.6,8.12L650.41,402.65l-1.59-8.12-5.24-26.61L642,359.81l131.6-25.89ZM764.1,285.64l5.23,26.61,1.6,8.12L639.32,346.26l-1.6-8.12-5.23-26.61-1.6-8.11L762.5,277.53ZM753,229.25l5.24,26.61,1.59,8.12-131.6,25.89-1.6-8.12-5.24-26.61L619.8,247l131.61-25.89Z" class="cls-7"/><rect width="134.98" height="304.09" x="908.02" y="995.52" class="cls-3" transform="translate(-513.76 1372.51) rotate(-58.22)"/><rect width="119.66" height="288.78" x="915.69" y="1003.18" class="cls-4" transform="translate(-513.76 1372.52) rotate(-58.22)"/><path d="M1022.8,1176.86a55.63,55.63,0,1,1-18-76.58A55.62,55.62,0,0,1,1022.8,1176.86Z" class="cls-3"/><path d="M990,1115.45l2.79-4.5,7.79,4.83-2.79,4.5c5.9,5.57,6.15,12.91,1.05,21.15l-1.18,1.9-9-5.59,1.55-2.5c2.68-4.34,2-7-1.06-8.93s-5.77-1.3-8.46,3c-7.72,12.47,10.52,24.61-.21,41.92-5.09,8.23-11.92,11.31-19.54,8.51l-2.74,4.42-7.78-4.82,2.74-4.43c-6-5.62-6.19-13.06-1.09-21.28l2.58-4.16,9,5.57-2.95,4.77c-2.68,4.33-1.74,7.07,1.3,9s5.89,1.5,8.57-2.83c7.73-12.47-10.51-24.6.22-41.91C975.85,1115.9,982.44,1112.79,990,1115.45Z" class="cls-4"/><path d="M859.59,1046a42.16,42.16,0,0,0,58-13.64l-35.84-22.21Z" class="cls-3"/><path d="M1104.47,1148.06a42.16,42.16,0,0,0,13.63,58l22.21-35.84Z" class="cls-3"/><path d="M1091.43,1249.17a42.16,42.16,0,0,0-58,13.64l35.85,22.2Z" class="cls-3"/><path d="M832.92,1089l-22.2,35.85,35.84,22.2A42.17,42.17,0,0,0,832.92,1089Z" class="cls-3"/><path d="M903.67,1103.06a18.6,18.6,0,1,1-6-25.6A18.6,18.6,0,0,1,903.67,1103.06Z" class="cls-3"/><path d="M1079,1211.67a18.61,18.61,0,1,1-6-25.61A18.62,18.62,0,0,1,1079,1211.67Z" class="cls-3"/><g class="cls-5"><polygon points="1126.67 1161.82 1125.03 1160.8 855.88 1051.95 810.72 1124.87 1069.22 1285.01 1091.19 1249.56 1126.67 1161.82"/></g><rect width="134.98" height="304.09" x="885.4" y="1018.27" class="cls-3" transform="translate(-489.32 1614.93) rotate(-67.98)"/><rect width="119.66" height="288.78" x="893.07" y="1025.93" class="cls-4" transform="translate(-489.32 1614.94) rotate(-67.98)"/><path d="M1004.46,1191.18a55.63,55.63,0,1,1-30.72-72.43A55.64,55.64,0,0,1,1004.46,1191.18Z" class="cls-3"/><path d="M961.74,1136.21l2-4.91,8.49,3.44-2,4.91c6.77,4.49,8.26,11.67,4.62,20.66l-.83,2.07-9.83-4,1.1-2.73c1.91-4.73.75-7.29-2.55-8.62s-5.92-.31-7.83,4.42c-5.49,13.59,14.54,22.46,6.9,41.35-3.62,9-9.83,13.17-17.81,11.69l-2,4.83-8.49-3.44,2-4.82c-6.86-4.53-8.31-11.83-4.69-20.79l1.84-4.54,9.82,4-2.1,5.2c-1.91,4.71-.51,7.26,2.8,8.6s6.06.47,8-4.25c5.5-13.6-14.53-22.46-6.89-41.34C947.85,1139.05,953.82,1134.87,961.74,1136.21Z" class="cls-4"/><path d="M821.42,1089.84a42.16,42.16,0,0,0,54.9-23.28l-39.09-15.81Z" class="cls-3"/><path d="M1080.06,1149a42.17,42.17,0,0,0,23.28,54.9l15.81-39.09Z" class="cls-3"/><path d="M1084.35,1250.8a42.16,42.16,0,0,0-54.89,23.28l39.08,15.81Z" class="cls-3"/><path d="M802.44,1136.79l-15.81,39.09,39.08,15.81A42.16,42.16,0,0,0,802.44,1136.79Z" class="cls-3"/><path d="M874.54,1138.64a18.6,18.6,0,1,1-10.27-24.22A18.6,18.6,0,0,1,874.54,1138.64Z" class="cls-3"/><path d="M1065.73,1216a18.61,18.61,0,1,1-10.28-24.21A18.59,18.59,0,0,1,1065.73,1216Z" class="cls-3"/><g class="cls-5"><polygon points="1104.76 1158.94 1088.48 1152.36 820.82 1091.33 786.63 1175.88 825.71 1191.69 1068.54 1289.89 1083.13 1253.83 1104.76 1158.94"/></g><rect width="134.98" height="304.09" x="867.62" y="1040.58" class="cls-3" transform="translate(-435.56 1839.2) rotate(-77.16)"/><rect width="119.66" height="288.78" x="875.28" y="1048.24" class="cls-4" transform="translate(-435.56 1839.21) rotate(-77.16)"/><path d="M989.34,1205a55.63,55.63,0,1,1-41.86-66.6A55.62,55.62,0,0,1,989.34,1205Z" class="cls-3"/><path d="M938.41,1157.55l1.18-5.16,8.93,2-1.18,5.17c7.39,3.35,10,10.21,7.86,19.66l-.5,2.18-10.34-2.36.66-2.87c1.13-5-.42-7.31-3.9-8.11s-5.88.65-7,5.62c-3.26,14.29,17.93,19.86,13.41,39.72-2.15,9.43-7.61,14.56-15.73,14.38l-1.15,5.07-8.93-2,1.15-5.07c-7.48-3.38-10.08-10.35-7.93-19.78l1.08-4.78,10.33,2.36-1.25,5.47c-1.13,5,.66,7.25,4.14,8s6.06-.5,7.19-5.46c3.26-14.31-17.92-19.86-13.39-39.72C925.15,1162.57,930.37,1157.49,938.41,1157.55Z" class="cls-4"/><path d="M792.49,1134.14A42.15,42.15,0,0,0,843,1102.4l-41.1-9.37Z" class="cls-3"/><path d="M1057.25,1151.26a42.14,42.14,0,0,0,31.73,50.48l9.37-41.11Z" class="cls-3"/><path d="M1077.72,1251.12a42.18,42.18,0,0,0-50.48,31.74l41.11,9.37Z" class="cls-3"/><path d="M781.23,1183.52l-9.37,41.11L813,1234A42.17,42.17,0,0,0,781.23,1183.52Z" class="cls-3"/><path d="M852.71,1173.84a18.6,18.6,0,1,1-14-22.27A18.6,18.6,0,0,1,852.71,1173.84Z" class="cls-3"/><path d="M1053.78,1219.69a18.61,18.61,0,1,1-14-22.27A18.6,18.6,0,0,1,1053.78,1219.69Z" class="cls-3"/><polygon points="85.63 1139.86 115.15 1158.17 126.6 1125.38 156.11 1143.68 167.57 1110.9 197.07 1129.2 208.53 1096.42 238.05 1114.72 238.25 1114.64 163.93 904.43 0 962.39 74.25 1172.42 85.63 1139.86" class="cls-6"/><rect width="86.15" height="11.28" x="23.4" y="962.42" class="cls-9" transform="translate(-318.83 77.5) rotate(-19.47)"/><rect width="86.15" height="11.28" x="33.18" y="990.07" class="cls-9" transform="translate(-327.5 82.35) rotate(-19.47)"/><rect width="86.15" height="11.28" x="42.95" y="1017.72" class="cls-9" transform="translate(-336.13 87.17) rotate(-19.47)"/><rect width="37.04" height="11.27" x="123.34" y="935.77" class="cls-9" transform="translate(-306.05 101.32) rotate(-19.5)"/><rect width="37.05" height="11.28" x="133.12" y="963.42" class="cls-9" transform="translate(-314.31 105.95) rotate(-19.47)"/><rect width="37.04" height="11.28" x="142.9" y="991.08" class="cls-9" transform="translate(-322.95 110.78) rotate(-19.47)"/><path d="M65.2,1091.59l16.7-5.91,1.74,4.92-5.66,2,10.42,29.47L83,1124,72.58,1094.5l-5.65,2Z" class="cls-10"/><path d="M86.73,1093.26c-1.94-5.51-.16-9.68,5.15-11.55s9.31.25,11.25,5.74l6.33,17.89c1.94,5.49.15,9.66-5.15,11.54s-9.31-.25-11.26-5.75Zm11.84,16.31c.87,2.46,2.29,3,4,2.4s2.47-1.92,1.6-4.38L97.61,1089c-.87-2.47-2.28-3-4-2.41s-2.47,1.92-1.6,4.38Z" class="cls-10"/><path d="M102.14,1078.53l16.69-5.9,1.74,4.91-5.65,2L125.33,1109l-5.4,1.9-10.41-29.46-5.65,2Z" class="cls-10"/><path d="M149,1100.65l-5.45,1.93-3.14-5.91-6.63,2.34,1.27,6.57-5,1.75L123.4,1071l7.91-2.8Zm-16.18-6.55,5.2-1.83-8.74-16.47Z" class="cls-10"/><path d="M139.31,1065.39l5.41-1.91L155.14,1093l8.89-3.15,1.73,4.91-14.29,5Z" class="cls-10"/><rect width="33.2" height="11.27" x="176.2" y="1074.09" class="cls-9" transform="translate(-348.27 125.67) rotate(-19.43)"/><rect width="33.19" height="11.27" x="168.41" y="1052.05" class="cls-9" transform="translate(-341.93 122.13) rotate(-19.47)"/><rect width="141.55" height="11.28" x="51.69" y="1037.69" class="cls-9" transform="translate(-340.76 100.48) rotate(-19.47)"/><path d="M149.27,211A31.26,31.26,0,1,1,118,179.71,31.25,31.25,0,0,1,149.27,211Z" class="cls-11"/><path d="M115.52,191.92V189h5v2.89c4.33.89,6.55,4.22,6.55,9.5v1.22h-5.78V201c0-2.78-1.11-3.84-3.05-3.84s-3,1.06-3,3.84c0,8,11.93,8.38,11.93,19.49,0,5.27-2.27,8.66-6.6,9.55v2.83h-5v-2.83c-4.39-.89-6.61-4.28-6.61-9.55v-2.67h5.78v3.06c0,2.77,1.22,3.77,3.16,3.77s3.17-1,3.17-3.77c0-8-11.94-8.39-11.94-19.49C109.08,196.2,111.24,192.86,115.52,191.92Z" class="cls-12"/><path d="M1134.7,191.69a31.25,31.25,0,1,1-18-40.38A31.26,31.26,0,0,1,1134.7,191.69Z" class="cls-11"/><path d="M1110,161.82l1-2.7,4.66,1.79-1,2.7c3.72,2.38,4.6,6.29,2.71,11.21L1117,176l-5.4-2.07.58-1.5c1-2.59.34-4-1.48-4.67s-3.23-.11-4.22,2.48c-2.87,7.47,8.14,12.11,4.16,22.47-1.89,4.93-5.23,7.28-9.59,6.55l-1,2.65-4.67-1.79,1-2.65c-3.78-2.4-4.64-6.36-2.75-11.28l1-2.49,5.39,2.07-1.09,2.85c-1,2.59-.21,4,1.6,4.66s3.32.2,4.31-2.39c2.87-7.47-8.14-12.11-4.16-22.47C1102.47,163.5,1105.68,161.17,1110,161.82Z" class="cls-12"/><path d="M1570.06,478.3a31.25,31.25,0,1,1-36.18-25.39A31.26,31.26,0,0,1,1570.06,478.3Z" class="cls-11"/><path d="M1533.53,465.37l-.5-2.85,4.92-.86.5,2.84c4.42.13,7.18,3,8.09,8.23l.21,1.2-5.69,1-.27-1.59c-.48-2.73-1.76-3.58-3.67-3.25s-2.83,1.57-2.35,4.3c1.38,7.88,13.21,6.2,15.12,17.14.91,5.2-.74,8.93-4.86,10.55l.49,2.79-4.92.86-.49-2.79c-4.47-.12-7.25-3.07-8.16-8.27l-.46-2.62,5.69-1,.53,3c.48,2.74,1.85,3.51,3.77,3.17s2.94-1.53,2.46-4.26c-1.38-7.88-13.2-6.2-15.12-17.14C1527.92,470.69,1529.48,467,1533.53,465.37Z" class="cls-12"/><path d="M1718.36,638.91a31.25,31.25,0,1,1-18-40.38A31.26,31.26,0,0,1,1718.36,638.91Z" class="cls-11"/><path d="M1693.67,609l1-2.7,4.67,1.79-1,2.7c3.72,2.38,4.6,6.29,2.71,11.21l-.44,1.14-5.39-2.07.58-1.5c1-2.59.33-4-1.48-4.67s-3.23-.11-4.22,2.48c-2.87,7.47,8.14,12.11,4.16,22.47-1.89,4.93-5.23,7.27-9.59,6.55l-1,2.65L1679,647.3l1-2.65c-3.77-2.4-4.63-6.36-2.74-11.28l1-2.49,5.39,2.07-1.09,2.85c-1,2.59-.21,4,1.6,4.66s3.31.2,4.31-2.39c2.86-7.47-8.14-12.11-4.17-22.47C1686.12,610.72,1689.34,608.39,1693.67,609Z" class="cls-12"/><path d="M219.42,165.54a31.26,31.26,0,1,1-10.93-42.83A31.26,31.26,0,0,1,219.42,165.54Z" class="cls-11"/><path d="M200.11,131.94l1.47-2.49,4.3,2.55-1.47,2.49c3.27,3,3.48,7,.79,11.51l-.63,1-5-2.94.82-1.39c1.42-2.38,1-3.86-.67-4.85s-3.17-.65-4.58,1.74c-4.08,6.88,6,13.3.32,22.85-2.69,4.54-6.38,6.29-10.56,4.84l-1.44,2.44-4.3-2.55,1.44-2.44c-3.32-3-3.5-7.05-.8-11.58l1.35-2.29,5,2.94-1.56,2.63c-1.41,2.39-.87,3.87.8,4.86s3.23.76,4.65-1.63c4.08-6.88-6-13.3-.33-22.85C192.39,132.33,196,130.57,200.11,131.94Z" class="cls-12"/><path d="M86.2,738.39A31.26,31.26,0,1,1,55.12,707,31.25,31.25,0,0,1,86.2,738.39Z" class="cls-11"/><path d="M52.55,719.15l0-2.88,5,0,0,2.88c4.33.92,6.53,4.26,6.5,9.54v1.21l-5.77,0v-1.61c0-2.77-1.09-3.83-3-3.85s-3.05,1-3.07,3.82c0,8,11.89,8.45,11.83,19.55,0,5.28-2.32,8.65-6.66,9.52v2.83l-5,0V757.3c-4.38-.91-6.58-4.31-6.55-9.59v-2.66l5.78,0,0,3.06c0,2.77,1.2,3.78,3.15,3.79s3.17-1,3.18-3.76c0-8-11.89-8.45-11.83-19.55C46.09,723.4,48.27,720.08,52.55,719.15Z" class="cls-12"/><path d="M623.5,1233.06a31.26,31.26,0,1,1-31.08-31.43A31.25,31.25,0,0,1,623.5,1233.06Z" class="cls-11"/><path d="M589.85,1213.82l0-2.88,5,0,0,2.88c4.33.92,6.53,4.26,6.5,9.53v1.22l-5.77,0V1223c0-2.77-1.09-3.83-3-3.85s-3,1-3.07,3.82c0,8,11.89,8.45,11.83,19.55,0,5.28-2.32,8.65-6.66,9.52v2.83l-5,0,0-2.83c-4.39-.91-6.59-4.31-6.56-9.59v-2.66l5.78,0,0,3.06c0,2.77,1.2,3.78,3.15,3.79s3.17-1,3.18-3.76c0-8-11.89-8.45-11.83-19.55C583.39,1218.07,585.57,1214.75,589.85,1213.82Z" class="cls-12"/><path d="M1193.77,1260.84a31.26,31.26,0,1,1-38.19-22.26A31.27,31.27,0,0,1,1193.77,1260.84Z" class="cls-11"/><path d="M1156.27,1251l-.73-2.79,4.83-1.27.74,2.79c4.41-.24,7.41,2.41,8.75,7.51l.31,1.18-5.58,1.47-.41-1.55c-.71-2.69-2-3.43-3.93-2.93s-2.68,1.8-2,4.48c2,7.73,13.68,5.07,16.51,15.81,1.34,5.1,0,9-4,10.92l.72,2.73-4.84,1.28-.72-2.74c-4.47.26-7.48-2.45-8.82-7.55l-.68-2.58,5.58-1.47.78,3c.71,2.69,2.15,3.34,4,2.85s2.8-1.78,2.09-4.46c-2-7.73-13.68-5.07-16.51-15.8C1151.13,1256.8,1152.38,1253,1156.27,1251Z" class="cls-12"/><circle cx="232.36" cy="257.84" r="31.26" class="cls-11" transform="translate(-96.07 370.11) rotate(-66.85)"/><path d="M223,241.09l-1.07-2.68,4.64-1.86,1.07,2.68c4.35-.79,7.65,1.48,9.62,6.38l.45,1.13-5.36,2.15-.6-1.5c-1-2.57-2.46-3.14-4.26-2.42s-2.44,2.12-1.41,4.69c3,7.43,14.2,3.35,18.34,13.65,2,4.9,1.11,8.89-2.58,11.33l1.05,2.62-4.64,1.86-1-2.62c-4.4.8-7.72-1.51-9.69-6.41l-1-2.47,5.36-2.15L233,268.3c1,2.58,2.54,3.05,4.34,2.33s2.57-2.11,1.53-4.68c-3-7.42-14.2-3.34-18.33-13.65C218.57,247.46,219.34,243.56,223,241.09Z" class="cls-12"/><circle cx="1050.41" cy="105.09" r="31.26" class="cls-11" transform="translate(535.14 1026.44) rotate(-66.5)"/><path d="M1041,88.34l-1.07-2.68,4.64-1.86,1.07,2.68c4.35-.79,7.65,1.48,9.62,6.38l.45,1.13-5.36,2.15-.6-1.5c-1-2.57-2.46-3.14-4.26-2.42s-2.44,2.12-1.41,4.69c3,7.43,14.2,3.34,18.34,13.65,2,4.9,1.11,8.89-2.58,11.33l1.05,2.62-4.64,1.86-1-2.62c-4.4.8-7.72-1.51-9.69-6.41l-1-2.47,5.36-2.15,1.14,2.83c1,2.58,2.54,3,4.34,2.33s2.57-2.11,1.53-4.68c-3-7.43-14.2-3.34-18.33-13.65C1036.62,94.71,1037.39,90.81,1041,88.34Z" class="cls-12"/><circle cx="93.37" cy="848.48" r="31.26" class="cls-11" transform="matrix(0.39, -0.92, 0.92, 0.39, -723.49, 600.75)"/><path d="M84,831.73l-1.08-2.67,4.64-1.86,1.08,2.67c4.35-.78,7.65,1.49,9.61,6.38l.45,1.13-5.36,2.15-.6-1.49c-1-2.58-2.45-3.14-4.26-2.42s-2.44,2.11-1.4,4.69c3,7.42,14.2,3.34,18.33,13.65,2,4.89,1.11,8.89-2.58,11.32l1.06,2.63-4.64,1.86-1.06-2.63c-4.4.81-7.72-1.51-9.68-6.4l-1-2.48,5.36-2.15L94,859c1,2.58,2.54,3,4.34,2.33s2.57-2.11,1.54-4.69c-3-7.42-14.21-3.34-18.34-13.64C79.58,838.1,80.35,834.2,84,831.73Z" class="cls-12"/><circle cx="453.19" cy="1170.74" r="31.26" class="cls-11" transform="translate(-801.15 1119.44) rotate(-66.5)"/><path d="M443.78,1154l-1.07-2.68,4.64-1.86,1.07,2.68c4.35-.78,7.65,1.48,9.62,6.38l.45,1.13-5.36,2.15-.6-1.5c-1-2.57-2.46-3.14-4.26-2.41s-2.44,2.11-1.41,4.69c3,7.42,14.2,3.34,18.34,13.64,2,4.9,1.11,8.89-2.58,11.33l1.05,2.63L459,1192l-1-2.63c-4.4.81-7.72-1.51-9.69-6.41l-1-2.47,5.36-2.15,1.14,2.84c1,2.57,2.54,3,4.34,2.32s2.57-2.1,1.53-4.68c-3-7.42-14.2-3.34-18.33-13.65C439.4,1160.36,440.17,1156.46,443.78,1154Z" class="cls-12"/><circle cx="722.09" cy="1192.64" r="31.26" class="cls-11" transform="translate(-367.78 323.17) rotate(-20.22)"/><path d="M727.82,1174.3l1.21-2.62,4.54,2.1-1.21,2.62c3.55,2.62,4.17,6.58,2,11.37l-.52,1.1-5.24-2.42.68-1.46c1.16-2.52.6-3.94-1.17-4.76s-3.21-.32-4.37,2.19c-3.36,7.26,7.31,12.63,2.65,22.71-2.22,4.78-5.71,6.9-10,5.89l-1.19,2.57-4.53-2.1,1.19-2.57c-3.61-2.65-4.21-6.65-2-11.44l1.12-2.42,5.24,2.43-1.29,2.77c-1.16,2.52-.47,3.94,1.29,4.75s3.3.42,4.46-2.09c3.36-7.26-7.32-12.63-2.65-22.71C720.18,1175.48,723.54,1173.36,727.82,1174.3Z" class="cls-12"/><circle cx="1001.4" cy="188.73" r="31.26" class="cls-11" transform="translate(423.55 1028.08) rotate(-66.13)"/><path d="M992,172l-1.07-2.68,4.64-1.86,1.07,2.68c4.35-.79,7.65,1.48,9.62,6.38l.45,1.13-5.36,2.15-.6-1.5c-1-2.57-2.46-3.14-4.26-2.42s-2.44,2.12-1.41,4.69c3,7.43,14.2,3.35,18.34,13.65,2,4.9,1.11,8.89-2.58,11.33l1,2.62-4.64,1.86-1-2.62c-4.4.8-7.72-1.51-9.69-6.41l-1-2.47,5.36-2.15,1.14,2.83c1,2.58,2.54,3.05,4.34,2.33s2.57-2.11,1.53-4.68c-3-7.43-14.2-3.34-18.33-13.65C987.61,178.35,988.38,174.45,992,172Z" class="cls-12"/><polygon points="1566.63 879.58 1578.2 912.34 1607.66 893.92 1619.22 926.66 1648.67 908.26 1660.24 941 1689.69 922.6 1701.27 955.34 1701.47 955.41 1775.03 744.93 1610.89 687.56 1537.39 897.86 1566.63 879.58" class="cls-6"/><rect width="11.28" height="86.15" x="1653.56" y="690.51" class="cls-9" transform="matrix(0.33, -0.94, 0.94, 0.33, 419.28, 2057.85)"/><rect width="11.28" height="86.15" x="1643.88" y="718.19" class="cls-9" transform="translate(386.6 2067.21) rotate(-70.73)"/><rect width="11.28" height="86.15" x="1634.21" y="745.88" class="cls-9" transform="translate(353.95 2076.59) rotate(-70.73)"/><rect width="11.27" height="37.04" x="1729.04" y="741.44" class="cls-9" transform="translate(445.58 2147.37) rotate(-70.76)"/><rect width="11.28" height="37.05" x="1719.36" y="769.13" class="cls-9" transform="translate(412.24 2156.1) rotate(-70.73)"/><rect width="11.28" height="37.04" x="1709.69" y="796.82" class="cls-9" transform="translate(379.6 2165.5) rotate(-70.73)"/><path d="M1580.9,829.14l16.73,5.85-1.72,4.91-5.66-2-10.32,29.51-5.4-1.89L1584.84,836l-5.66-2Z" class="cls-10"/><path d="M1596.66,843.92c1.93-5.51,5.93-7.65,11.23-5.79s7.12,6,5.2,11.52l-6.26,17.91c-1.93,5.5-5.93,7.64-11.24,5.78s-7.11-6-5.18-11.52Zm-1,20.13c-.86,2.46-.1,3.77,1.62,4.37s3.12.05,4-2.41l6.49-18.59c.86-2.46.1-3.77-1.61-4.37s-3.13,0-4,2.41Z" class="cls-10"/><path d="M1617.89,842.07l16.72,5.84-1.72,4.92-5.66-2-10.32,29.5-5.4-1.89,10.31-29.5-5.65-2Z" class="cls-10"/><path d="M1640.57,888.62l-5.45-1.91,1.25-6.57-6.64-2.32-3.12,5.92-5-1.74,17.53-32.49,7.93,2.77Zm-8.52-15.23,5.2,1.82,3.49-18.31Z" class="cls-10"/><path d="M1655.11,855.08l5.41,1.89-10.31,29.51,8.9,3.11-1.72,4.91-14.31-5Z" class="cls-10"/><rect width="11.27" height="33.2" x="1682.23" y="883.13" class="cls-9" transform="translate(280.81 2195.34) rotate(-70.7)"/><rect width="11.28" height="33.19" x="1689.94" y="861.07" class="cls-9" transform="translate(307.59 2188.69) rotate(-70.73)"/><rect width="11.27" height="141.55" x="1650.14" y="756.55" class="cls-9" transform="translate(328.52 2117.47) rotate(-70.74)"/><polygon points="1236.7 825.47 776.79 852.98 741.89 269.45 1201.81 241.95 1236.7 825.47" class="cls-13"/><polygon points="870.1 315.05 788.81 319.89 787.88 304.56 869.2 299.69 870.1 315.05" class="cls-14"/><polygon points="1159.56 297.73 1021.55 305.98 1020.62 290.63 1158.63 282.38 1159.56 297.73" class="cls-14"/><rect width="373.08" height="15.37" x="790.33" y="332.27" class="cls-14" transform="translate(-18.56 58.96) rotate(-3.42)"/><polygon points="1165.82 374.31 793.39 396.59 792.47 381.24 1164.9 358.98 1165.82 374.31" class="cls-14"/><rect width="373.07" height="15.38" x="794.87" y="407.91" class="cls-14" transform="translate(-23.06 59.33) rotate(-3.42)"/><polygon points="1170.34 449.96 797.92 472.25 797.01 456.88 1169.42 434.63 1170.34 449.96" class="cls-14"/><rect width="373.09" height="15.38" x="799.38" y="483.56" class="cls-14" transform="translate(-27.58 59.75) rotate(-3.42)"/><polygon points="1174.86 525.6 802.44 547.89 801.52 532.54 1173.94 510.26 1174.86 525.6" class="cls-14"/><polygon points="1177.13 563.43 804.7 585.71 803.8 570.36 1176.21 548.08 1177.13 563.43" class="cls-14"/><polygon points="1179.38 601.26 806.96 623.53 806.04 608.18 1178.47 585.9 1179.38 601.26" class="cls-14"/><polygon points="1181.65 639.09 809.22 661.34 808.31 646.01 1180.73 623.74 1181.65 639.09" class="cls-14"/><polygon points="1183.91 676.91 811.49 699.17 810.56 683.84 1182.99 661.55 1183.91 676.91" class="cls-14"/><polygon points="1186.18 714.72 813.75 737.01 812.83 721.66 1185.25 699.38 1186.18 714.72" class="cls-14"/><polygon points="1188.43 752.55 816.01 774.83 815.08 759.48 1187.53 737.2 1188.43 752.55" class="cls-14"/><polygon points="1190.69 790.38 818.28 812.65 817.36 797.32 1189.79 775.02 1190.69 790.38" class="cls-14"/><rect width="373.07" height="15.38" x="794.87" y="407.91" class="cls-14" transform="translate(-23.06 59.33) rotate(-3.42)"/><polygon points="1275.53 935.52 816.14 899.89 861.37 317.1 1320.73 352.73 1275.53 935.52" class="cls-6"/><polygon points="982.16 379.76 900.95 373.46 902.15 358.14 983.36 364.43 982.16 379.76" class="cls-15"/><polygon points="1271.26 402.19 1133.41 391.5 1134.6 376.16 1272.45 386.87 1271.26 402.19" class="cls-15"/><polygon points="1269.91 441.13 897.94 412.27 899.14 396.95 1271.1 425.82 1269.91 441.13" class="cls-15"/><polygon points="1266.98 478.92 895.02 450.06 896.2 434.73 1268.17 463.59 1266.98 478.92" class="cls-15"/><polygon points="1264.05 516.7 892.09 487.84 893.26 472.51 1265.25 501.38 1264.05 516.7" class="cls-15"/><polygon points="1261.13 554.47 889.16 525.63 890.34 510.29 1262.31 539.16 1261.13 554.47" class="cls-15"/><polygon points="1258.18 592.25 886.22 563.4 887.4 548.07 1259.38 576.92 1258.18 592.25" class="cls-15"/><polygon points="1255.25 630.03 883.3 601.18 884.48 585.85 1256.45 614.71 1255.25 630.03" class="cls-15"/><polygon points="1252.32 667.82 880.36 638.95 881.54 623.62 1253.52 652.48 1252.32 667.82" class="cls-15"/><polygon points="1249.38 705.58 877.43 676.72 878.61 661.39 1250.6 690.25 1249.38 705.58" class="cls-15"/><polygon points="1246.46 743.37 874.51 714.5 875.7 699.18 1247.64 728.03 1246.46 743.37" class="cls-15"/><polygon points="1243.53 781.15 871.57 752.29 872.74 736.96 1244.7 765.82 1243.53 781.15" class="cls-15"/><polygon points="1240.6 818.92 868.63 790.07 869.83 774.74 1241.8 803.58 1240.6 818.92" class="cls-15"/><polygon points="1237.68 856.71 865.7 827.83 866.89 812.51 1238.86 841.37 1237.68 856.71" class="cls-15"/><rect width="15.38" height="373.1" x="1041.66" y="685.83" class="cls-15" transform="translate(98.43 1851.12) rotate(-85.56)"/><polygon points="1264.05 516.7 892.09 487.84 893.26 472.51 1265.25 501.38 1264.05 516.7" class="cls-15"/><path d="M1359.59,1156.39a13.72,13.72,0,0,1-17.52,8.29L868.56,995.54a13.7,13.7,0,0,1-8.3-17.51L1066.1,401.76a13.71,13.71,0,0,1,17.53-8.3l473.5,169.13a13.71,13.71,0,0,1,8.29,17.52Z" class="cls-16"/><rect width="584.46" height="475.39" x="920.62" y="541.35" class="cls-6" transform="translate(71.22 1659.16) rotate(-70.34)"/><path d="M1366.84,464.82a39.32,39.32,0,0,0-74-26.45l-81.09-29-26.47,74.06,236.25,84.44L1448,493.82Z" class="cls-13"/><path d="M1345.45,458.54a17.05,17.05,0,1,1-10.29-21.8A17.06,17.06,0,0,1,1345.45,458.54Z" class="cls-17"/><polygon points="1421.48 567.87 1185.23 483.43 1193.08 461.48 1429.33 545.94 1421.48 567.87" class="cls-17"/><path d="M1485.88,658c.28-1,.52-2.07.76-3.1q.51-2.36.84-4.68a63.23,63.23,0,1,0-3.07,12.42Q1485.24,660.28,1485.88,658Zm-77.76,30.39a49.9,49.9,0,1,1,63.79-30.21A49.9,49.9,0,0,1,1408.12,688.34Z" class="cls-18"/><path d="M1461.65,654.46A39,39,0,1,1,1438,604.59,39,39,0,0,1,1461.65,654.46Z" class="cls-19"/><path d="M1485.88,658c.28-1,.52-2.07.76-3.11.34-1.56.62-3.12.85-4.67a63.24,63.24,0,0,0-41.34-68.35l-4.46,12.53a49.9,49.9,0,1,1-63.79,30.2l-12.51-4.47c-.55,1.55-1,3.09-1.45,4.65-.29,1-.54,2.06-.77,3.11-.35,1.55-.63,3.11-.86,4.66-.25,1.82-.41,3.64-.52,5.44a63.21,63.21,0,0,0,114.1,40.75c1.07-1.46,2.08-3,3-4.54q1.2-2,2.31-4.15c.47-1,.93-1.91,1.37-2.89q1-2.21,1.8-4.52T1485.88,658Z" class="cls-20"/><g class="cls-21"><rect width="190.08" height="22.81" x="884.83" y="882.84" class="cls-22" transform="translate(-192.02 1515.92) rotate(-70.33)"/><rect width="199.95" height="22.82" x="915.56" y="890.33" class="cls-22" transform="translate(-175.27 1554.76) rotate(-70.34)"/><polygon points="1099.03 809.28 1077.53 801.6 1005.17 1004.21 1026.65 1011.88 1099.03 809.28" class="cls-22"/><rect width="227.04" height="22.82" x="974.59" y="901.87" class="cls-22" transform="translate(-137.79 1631.08) rotate(-70.36)"/><rect width="215.13" height="22.82" x="1012.54" y="919.63" class="cls-22" transform="translate(-133.16 1673.19) rotate(-70.37)"/><rect width="227.05" height="22.82" x="1042.59" y="926.17" class="cls-22" transform="translate(-115.58 1711.17) rotate(-70.35)"/><rect width="239.57" height="22.82" x="1072.45" y="932.41" class="cls-22" transform="translate(-97.64 1749.08) rotate(-70.34)"/><rect width="254.15" height="22.81" x="1101.62" y="937.7" class="cls-22" transform="translate(-78.46 1786.86) rotate(-70.34)"/><rect width="271.32" height="22.8" x="1129.92" y="941.76" class="cls-22" transform="matrix(0.34, -0.94, 0.94, 0.34, -57.67, 1824.5)"/><polygon points="1366.69 811.38 1345.19 803.71 1243.21 1089.23 1264.69 1096.9 1366.69 811.38" class="cls-22"/><polygon points="1397.24 833.22 1375.75 825.54 1277.22 1101.38 1298.7 1109.06 1397.24 833.22" class="cls-22"/></g><rect width="155.51" height="22.81" x="896.3" y="899.11" class="cls-23" transform="translate(-211.19 1521.27) rotate(-70.33)"/><rect width="161.09" height="22.82" x="928.45" y="908.63" class="cls-23" transform="translate(-196.81 1560.81) rotate(-70.35)"/><rect width="169.69" height="22.82" x="959.61" y="916.73" class="cls-23" transform="translate(-180.92 1599.56) rotate(-70.35)"/><polygon points="1120.02 857.89 1098.52 850.21 1039.18 1016.36 1060.67 1024.02 1120.02 857.89" class="cls-23"/><rect width="169.68" height="22.82" x="1027.62" y="941.03" class="cls-23" transform="translate(-158.43 1680.14) rotate(-70.36)"/><rect width="176.43" height="22.82" x="1059.39" y="950" class="cls-23" transform="matrix(0.34, -0.94, 0.94, 0.34, -143.83, 1718.7)"/><rect width="183.51" height="22.82" x="1091.05" y="958.81" class="cls-23" transform="translate(-128.61 1757.96) rotate(-70.35)"/><rect width="191.75" height="22.82" x="1122.32" y="967.08" class="cls-23" transform="translate(-113.34 1796.08) rotate(-70.32)"/><polygon points="1298.45 895.04 1276.97 887.37 1209.21 1077.08 1230.68 1084.75 1298.45 895.04" class="cls-23"/><polygon points="1338.54 890.2 1317.05 882.53 1243.21 1089.23 1264.69 1096.9 1338.54 890.2" class="cls-23"/><polygon points="1370.58 907.83 1349.1 900.16 1277.22 1101.38 1298.7 1109.06 1370.58 907.83" class="cls-23"/><g class="cls-24"><rect width="103.36" height="22.81" x="913.6" y="923.67" class="cls-25" transform="matrix(0.34, -0.94, 0.94, 0.34, -240.03, 1529.54)"/><polygon points="1027.97 900.81 1006.49 893.13 971.15 992.05 992.64 999.73 1027.97 900.81" class="cls-25"/><rect width="122.06" height="22.82" x="975.41" y="939.16" class="cls-25" transform="translate(-207.36 1606.89) rotate(-70.34)"/><polygon points="1102.41 907.17 1080.92 899.49 1039.18 1016.36 1060.67 1024.02 1102.41 907.17" class="cls-25"/><polygon points="1135.72 921.23 1114.23 913.55 1073.18 1028.5 1094.67 1036.17 1135.72 921.23" class="cls-25"/><polygon points="1175.27 917.9 1153.77 910.23 1107.18 1040.65 1128.67 1048.32 1175.27 917.9" class="cls-25"/><rect width="140.65" height="22.82" x="1105.27" y="978.99" class="cls-25" transform="translate(-152.27 1764.81) rotate(-70.36)"/><polygon points="1244.85 937.82 1223.36 930.13 1175.2 1064.93 1196.68 1072.61 1244.85 937.82" class="cls-25"/><polygon points="1283.46 937 1261.99 929.34 1209.21 1077.08 1230.68 1084.75 1283.46 937" class="cls-25"/><rect width="167.18" height="22.81" x="1198.48" y="1002.95" class="cls-25" transform="translate(-104.54 1880.33) rotate(-70.34)"/><polygon points="1352.73 957.83 1331.24 950.15 1277.22 1101.38 1298.7 1109.06 1352.73 957.83" class="cls-25"/></g><path d="M1466.07,770.77l-11.67,14.56.59-7.11a2,2,0,0,0-1.26-2h0a2,2,0,0,0-2.25.78l-6.2,9.62-.4-8.15-.51-20.86a1.94,1.94,0,0,0-1.21-1.75,2.09,2.09,0,0,0-2.07.4l-13.45,13.26.16-7.91a1.87,1.87,0,0,0-1.37-1.89l1.95-13.55a1.92,1.92,0,0,0-2.73-2l-3.61,1.68.92-11a1.94,1.94,0,0,0-1.28-2h0a1.94,1.94,0,0,0-2.25.79l-6.2,9.61-.42-8.14-.5-20.88a1.93,1.93,0,0,0-1.2-1.75,2.08,2.08,0,0,0-2.08.42l-13.45,13.24.17-7.91a1.93,1.93,0,0,0-1.38-1.89,2,2,0,0,0-2.2.82l-12.64,20.07c-.08,0-.14-.1-.22-.14l.4-7.21a2,2,0,0,0-1.11-1.87,1.91,1.91,0,0,0-2.15.35l-6.38,6-.38-16a1.94,1.94,0,0,0-1.21-1.74,2.06,2.06,0,0,0-2.09.42l-13.42,13.23.14-7.91a1.86,1.86,0,0,0-1.38-1.89,2,2,0,0,0-2.19.82l-12.89,20.43L1337,734a1.94,1.94,0,0,0-3.26-1.51l-5.58,5.3,2.85-13.48a1.94,1.94,0,0,0-1.11-2.18,1.89,1.89,0,0,0-2.33.63l-32,43.93.45-5.25a1.94,1.94,0,0,0-1.28-2h0a2,2,0,0,0-2.24.78l-1.06,1.65,3-22.69a1.93,1.93,0,0,0-3.48-1.38l-5.49,7.59-.11-4.57a1.93,1.93,0,0,0-1.21-1.76,2.15,2.15,0,0,0-2.07.43l-13.44,13.24.15-7.91a1.87,1.87,0,0,0-1.38-1.89,2,2,0,0,0-2.18.82l-10.33,16.36-.45-17a1.94,1.94,0,0,0-1.21-1.74,2.16,2.16,0,0,0-2.06.41l-24.64,23.92-.8-26.64a1.92,1.92,0,0,0-1.21-1.75,2.12,2.12,0,0,0-2.08.42L1209,751l.16-7.92a1.89,1.89,0,0,0-1.38-1.88,2,2,0,0,0-2.19.82l-12.88,20.41.41-7.7a2,2,0,0,0-1.21-1.91,2.12,2.12,0,0,0-2.17.53l-12.6,14.47,1-5.36a1.93,1.93,0,0,0-3.39-1.59l-.74.9,1.7-9.15a2,2,0,0,0-1-2.09,2,2,0,0,0-2.3.46l-5.58,6.31a1.85,1.85,0,0,0-1-1,1.93,1.93,0,0,0-2.08.42l-3.55,3.49-.66-23.45a1.89,1.89,0,0,0-1.2-1.74,2.12,2.12,0,0,0-2.08.42l-13.43,13.23.15-7.91a1.94,1.94,0,0,0-3.57-1.06l-4.53,7.21-2.62-21.05a2.11,2.11,0,0,0-1.3-1.6,1.92,1.92,0,0,0-2,.5l-13.18,13.82,4.34-27.49a2,2,0,0,0-1.21-2.1l-.07,0a1.94,1.94,0,0,0-2.26.76l-23.63,35.83,1.53-20.77a1.83,1.83,0,0,0-1.31-2,2,2,0,0,0-2.24.78l-18.2,28,1.07-9.05a1.94,1.94,0,0,0-1.2-2,2,2,0,0,0-2.26.61l-11.15,14.45-.24-10a1.91,1.91,0,0,0-1.2-1.75,2.15,2.15,0,0,0-2.08.41l-8.31,8.2,3.51-23.12a1.93,1.93,0,0,0-3.34-1.58l-19,20.83,1.84-20.53a2,2,0,0,0-1.28-2h0a1.93,1.93,0,0,0-2.24.77l-19.38,29.19L999.72,761l-2.78-13a1.81,1.81,0,0,0-1.35-1.45,1.93,1.93,0,0,0-1.9.48l-8.81,8.7-.21-9.06a2,2,0,0,0-1.22-1.75,2.13,2.13,0,0,0-2.07.42l-13.71,13.5-4.47,12.54a1.91,1.91,0,0,0,2-.45l12.94-12.84.22,9.06a2,2,0,0,0,1.21,1.75,2,2,0,0,0,2.08-.42l10.48-10.37,2.39,11.24a1.93,1.93,0,0,0,2.93,1.21l14.42-9.22a1.84,1.84,0,0,0,.52-.52l9.41-14.15-1.42,15.78a1.93,1.93,0,0,0,1.15,2,1.89,1.89,0,0,0,2.2-.47l18-19.66L1038.38,766a2,2,0,0,0,1,2,1.92,1.92,0,0,0,2.22-.33l10.73-10.59.3,12.48a1.92,1.92,0,0,0,1.28,1.76l0,0a1.93,1.93,0,0,0,2.14-.65l8.81-11.44-1.43,12.26a1.9,1.9,0,0,0,1.26,2v0a1.93,1.93,0,0,0,2.26-.78l19.19-29.53-1.5,20.48a1.88,1.88,0,0,0,1.32,2,1.94,1.94,0,0,0,2.23-.77l21.57-32.7L1106.6,753a1.93,1.93,0,0,0,3.3,1.62l16.83-17.64,3,24.35a1.9,1.9,0,0,0,1.5,1.65,2,2,0,0,0,2-.85l2.48-4,0,2.42a1.92,1.92,0,0,0,1.16,1.81,1.88,1.88,0,0,0,2.13-.41L1153,748.21l.24,9.83.67,13.42a1.92,1.92,0,0,0,1.23,1.69,2,2,0,0,0,2-.42l3.3-3.23v.14a2,2,0,0,0,1.27,1.78h0a1.93,1.93,0,0,0,2.1-.54l2-2.26-1.95,10.52a1.91,1.91,0,0,0,1.08,2.09,2,2,0,0,0,2.31-.52l.59-.72-1.1,5.79a1.93,1.93,0,0,0,3.4,1.58l12-15,3.36-3.86-.64,12.22a2,2,0,0,0,1.35,1.95,2,2,0,0,0,2.21-.81L1202,760.4l0,2.41a1.94,1.94,0,0,0,1.16,1.83,1.88,1.88,0,0,0,2.12-.41l14-13.74.24,9.81.82,16.52a1.93,1.93,0,0,0,3.27,1.29l24.39-23.7.6,21.87a1.93,1.93,0,0,0,3.57,1l9.54-15.13-.05,2.43a2,2,0,0,0,1.17,1.81,1.86,1.86,0,0,0,2.12-.4l13.93-13.74L1279,760a1.92,1.92,0,0,0,3.49,1.09l2.64-3.64-3.34,25.08a1.94,1.94,0,0,0,1.25,2.06h0a2,2,0,0,0,2.28-.76l2.26-3.52-.26,3.13a1.91,1.91,0,0,0,1.25,2,1.85,1.85,0,0,0,2.23-.67l28.87-39.62-1.39,6.57a1.93,1.93,0,0,0,3.22,1.8l8.06-7.63-.76,14.15a2,2,0,0,0,1.35,1.95,2,2,0,0,0,2.22-.82l13.53-21.43,0,2.41a1.92,1.92,0,0,0,1.16,1.81,1.86,1.86,0,0,0,2.12-.39l14-13.73.37,15.74a1.92,1.92,0,0,0,1.19,1.73,1.84,1.84,0,0,0,2.07-.37l5.48-5.18-.53,9.76a1.89,1.89,0,0,0,1.34,1.94,2,2,0,0,0,2.23-.79l2-3.06a1.82,1.82,0,0,0,1,.39,1.93,1.93,0,0,0,1.86-.88l8.53-13.51,0,2.42a2,2,0,0,0,1.17,1.81,2,2,0,0,0,2.13-.4l13.94-13.75.23,9.83,1.17,23.21a2,2,0,0,0,1.43,1.77,1.92,1.92,0,0,0,2.12-.82l3.84-6h0a1.93,1.93,0,0,0,2.74,1.91l3-1.43-3.42,23.71a1.92,1.92,0,0,0,1.24,2.08h0a1.93,1.93,0,0,0,2.28-.77l.17-.28-.05,2.4a1.93,1.93,0,0,0,1.17,1.81,1.86,1.86,0,0,0,2.12-.38l14-13.74.24,9.82,1.16,23.22a2,2,0,0,0,1.43,1.76,1.92,1.92,0,0,0,2.13-.81l3.83-6-.31,3.6a2,2,0,0,0,1.22,2,2,2,0,0,0,2.23-.58l6-7.47,7.36-9.46,5.3-14.82A1.88,1.88,0,0,0,1466.07,770.77Z" class="cls-26"/><polygon points="1137.38 504.22 1141.6 492.39 1342.3 564.08 1338.07 575.92 1137.38 504.22" class="cls-27"/><polygon points="1129.51 526.26 1133.74 514.42 1298.32 573.21 1294.1 585.04 1129.51 526.26" class="cls-28"/><rect width="12.57" height="194.36" x="1200.76" y="500.9" class="cls-13" transform="translate(237.18 1532.97) rotate(-70.31)"/><polygon points="1121.29 549.25 1125.52 537.41 1237.96 577.58 1233.74 589.42 1121.29 549.25" class="cls-29"/><rect width="83.8" height="34.2" x="1057.69" y="503.58" class="cls-27" transform="translate(239.38 1381.05) rotate(-70.34)"/><polygon points="1024.48 698.25 1022.55 685.35 1151.81 666.03 1165.54 701.43 1314.3 684.45 1315.78 697.41 1157.01 715.53 1143.42 680.47 1024.48 698.25" class="cls-27"/><polygon points="1310.89 714.97 1348.51 687.11 1305.58 668.45 1310.89 714.97" class="cls-30"/><rect width="9.92" height="86.84" x="1097.29" y="548.06" class="cls-18" transform="translate(174.44 1430.51) rotate(-70.34)"/><rect width="9.92" height="86.83" x="1089.93" y="568.68" class="cls-18" transform="translate(150.14 1437.25) rotate(-70.34)"/><rect width="9.92" height="86.83" x="1082.56" y="589.28" class="cls-18" transform="translate(125.8 1443.94) rotate(-70.34)"/><polygon points="1204.53 656.53 1174.58 645.83 1185.28 615.87 1215.23 626.57 1204.53 656.53" class="cls-26"/><rect width="31.81" height="31.8" x="1229.47" y="638.32" class="cls-31" transform="translate(210.11 1606.69) rotate(-70.33)"/><g class="cls-32"><polygon points="524.3 422.21 336.66 494.68 361.23 619.56 355.2 621.42 372.86 678.71 388.53 758.36 396.92 756.71 506.02 1110.49 753.24 1015.01 524.3 422.21"/></g><polygon points="730.75 1005.06 300.38 1171.27 83.98 610.9 514.34 444.7 730.75 1005.06" class="cls-6"/><polygon points="378.8 1104.58 326.27 1124.85 214.86 836.36 267.37 816.07 378.8 1104.58" class="cls-8"/><polygon points="294.68 886.78 231.18 878.6 219.27 847.77 282.77 855.94 294.68 886.78" class="cls-33"/><polygon points="322.58 959.04 259.08 950.85 247.17 920.02 310.68 928.2 322.58 959.04" class="cls-33"/><polygon points="350.49 1031.3 286.98 1023.11 275.07 992.26 338.58 1000.46 350.49 1031.3" class="cls-33"/><polygon points="378.39 1103.55 314.89 1095.37 302.97 1064.53 366.49 1072.72 378.39 1103.55" class="cls-33"/><polygon points="544.96 1040.4 492.44 1060.68 408.32 842.88 460.85 822.61 544.96 1040.4" class="cls-13"/><polygon points="488.75 894.86 425.24 886.68 413.34 855.85 476.85 864.02 488.75 894.86" class="cls-34"/><polygon points="516.65 967.12 453.15 958.94 441.24 928.1 504.74 936.28 516.65 967.12" class="cls-34"/><polygon points="544.56 1039.37 481.06 1031.18 469.14 1000.35 532.65 1008.54 544.56 1039.37" class="cls-34"/><rect width="56.28" height="154.64" x="379.62" y="933.17" class="cls-27" transform="translate(-336.83 214.91) rotate(-21.13)"/><polygon points="433.57 999.21 370.07 991.02 358.15 960.18 421.67 968.37 433.57 999.21" class="cls-35"/><polygon points="461.48 1071.47 397.98 1063.28 386.06 1032.44 449.57 1040.63 461.48 1071.47" class="cls-35"/><path d="M530.32,608.14c-1-2-2-4-3-6q-2.38-4.39-5-8.54a132.08,132.08,0,1,0,12.1,23.85C533.11,614.31,531.78,611.18,530.32,608.14ZM448.76,762.3a104.27,104.27,0,1,1,59.7-134.82A104.26,104.26,0,0,1,448.76,762.3Z" class="cls-36"/><path d="M487.25,635.66A81.53,81.53,0,1,1,381.83,589,81.52,81.52,0,0,1,487.25,635.66Z" class="cls-8"/><path d="M447.8,650.9a39.24,39.24,0,1,1-50.74-22.46A39.23,39.23,0,0,1,447.8,650.9Z" class="cls-37"/><path d="M530.32,608.14c-1-2-2-4-3-6-1.57-2.94-3.26-5.78-5-8.55a132.07,132.07,0,0,0-158.62-51.74l10,25.88A104.27,104.27,0,1,1,313.93,702.6l-25.89,10q1.84,4.8,4,9.33c1,2,2,4,3,6,1.59,2.94,3.26,5.79,5,8.55,2.06,3.22,4.27,6.34,6.58,9.34a132.06,132.06,0,0,0,236.11-91.18c-.31-3.77-.76-7.57-1.4-11.34-.55-3.24-1.21-6.49-2-9.73q-.79-3.22-1.77-6.46c-1-3.2-2.06-6.41-3.29-9.6S531.78,611.18,530.32,608.14Z" class="cls-8"/><polygon points="668.72 969.15 559.69 1011.25 567.25 1030.81 676.27 988.72 668.72 969.15" class="cls-38"/><rect width="116.88" height="20.98" x="542.4" y="945.1" class="cls-38" transform="translate(-303.93 280.64) rotate(-21.12)"/><polygon points="634.43 880.34 525.39 922.45 532.96 942.01 641.98 899.91 634.43 880.34" class="cls-38"/><path d="M526.82,789.47l-2.61-6.76,16.23-6.26,2.6,6.75c14.89-3.35,25.12,1.66,29.89,14l1.11,2.86-18.79,7.25-1.45-3.77c-2.51-6.5-7.06-7.57-13.37-5.14s-9,6.3-6.47,12.81c7.22,18.72,46.37,4.63,56.41,30.63,4.77,12.34.43,23.12-12.85,30.64l2.57,6.64-16.23,6.26-2.57-6.63c-15.07,3.44-25.33-1.72-30.09-14l-2.43-6.27,18.76-7.25,2.76,7.17c2.51,6.5,7.39,7.3,13.71,4.86s9.37-6.31,6.86-12.81c-7.23-18.72-46.36-4.64-56.4-30.63C509.75,807.57,513.77,797.05,526.82,789.47Z" class="cls-4"/><polygon points="209.53 666.3 157.02 686.59 136.73 634.07 189.26 613.79 209.53 666.3" class="cls-4"/><polygon points="240.66 746.9 188.15 767.17 167.87 714.66 220.37 694.38 240.66 746.9" class="cls-27"/><path d="M1075.72,941.2l207.4,67.43,207.39,67.43,12.76,4.15,18.44-56.72c2.29-7-2.11-12.31-8.61-16.91l-182.49-144-232.3,9.14c-8-.1-14.62,1.57-16.91,8.62L1063,937.05Z" class="cls-39"/><rect width="232.62" height="463" x="1130.84" y="887.74" class="cls-6" transform="translate(-202.87 1959.19) rotate(-71.99)"/><rect width="232.62" height="463" x="1130.38" y="889.16" class="cls-6" transform="matrix(0.31, -0.95, 0.95, 0.31, -204.54, 1959.73)"/><path d="M1054.23,963.88a13.43,13.43,0,0,0,8.62,16.92l414.78,134.86a13.42,13.42,0,0,0,16.91-8.61l8.73-26.84L1063,937.05Z" class="cls-40"/><rect width="10.99" height="463" x="1275.92" y="782.36" class="cls-41" transform="matrix(0.31, -0.95, 0.95, 0.31, -78.99, 1918.98)"/><polygon points="1499.87 1090.67 1458.71 1111.63 1489.77 1121.72 1499.87 1090.67" class="cls-6"/><polygon points="1059.56 947.5 1080.52 988.66 1049.46 978.56 1059.56 947.5" class="cls-6"/><rect width="10.44" height="76.12" x="1093.23" y="1018.52" class="cls-18" transform="translate(-246.01 1774.5) rotate(-71.99)"/><rect width="10.44" height="76.12" x="1086.49" y="1039.26" class="cls-18" transform="translate(-270.39 1782.41) rotate(-71.99)"/><rect width="10.44" height="113.29" x="1097.42" y="1047.16" class="cls-18" transform="translate(-288.03 1811.1) rotate(-71.99)"/><rect width="304.09" height="134.98" x="1405.46" y="196.8" class="cls-3" transform="translate(1099.79 1776.3) rotate(-82.79)"/><rect width="288.78" height="119.66" x="1413.12" y="204.47" class="cls-4" transform="translate(1099.78 1776.3) rotate(-82.79)"/><path d="M1550.52,319.48a55.63,55.63,0,1,1,62.17-48.21A55.64,55.64,0,0,1,1550.52,319.48Z" class="cls-3"/><path d="M1592.74,264.13l5.26.67-1.15,9.09-5.26-.67c-2.61,7.69-9.18,11-18.8,9.75l-2.21-.28,1.33-10.52,2.92.37c5.06.64,7.24-1.14,7.68-4.67s-1.21-5.8-6.27-6.44c-14.55-1.84-18,19.8-38.21,17.24-9.6-1.21-15.25-6.14-15.86-14.23l-5.16-.66,1.15-9.08,5.16.65c2.62-7.78,9.31-11.06,18.9-9.84l4.86.61-1.33,10.51-5.57-.7c-5-.64-7.15,1.36-7.59,4.9s1.09,6,6.14,6.62c14.55,1.85,18-19.78,38.21-17.23C1586.45,251.43,1592,256.13,1592.74,264.13Z" class="cls-4"/><path d="M1601.71,116.62a42.18,42.18,0,0,0,36.55,47.13l5.29-41.83Z" class="cls-3"/><path d="M1610.67,381.78a42.16,42.16,0,0,0-47.13,36.53l41.83,5.3Z" class="cls-3"/><path d="M1513.3,412a42.17,42.17,0,0,0-36.54-47.12l-5.3,41.83Z" class="cls-3"/><path d="M1551.47,110.27l-41.83-5.3-5.3,41.83A42.17,42.17,0,0,0,1551.47,110.27Z" class="cls-3"/><path d="M1568.11,180.45a18.6,18.6,0,1,1,20.79-16.12A18.61,18.61,0,0,1,1568.11,180.45Z" class="cls-3"/><path d="M1542.23,385.05A18.61,18.61,0,1,1,1563,368.92,18.6,18.6,0,0,1,1542.23,385.05Z" class="cls-3"/><g class="cls-5"><polygon points="1607.39 407.69 1607.63 405.77 1594.73 115.74 1509.64 104.97 1471.46 406.66 1512.84 411.9 1607.39 407.69"/></g><rect width="134.98" height="304.09" x="1459.92" y="101.13" class="cls-3" transform="translate(-9.74 68.13) rotate(-2.55)"/><rect width="119.66" height="288.78" x="1467.58" y="108.79" class="cls-4" transform="translate(-9.74 68.13) rotate(-2.55)"/><path d="M1529.88,308.75A55.63,55.63,0,1,1,1583,250.7,55.64,55.64,0,0,1,1529.88,308.75Z" class="cls-3"/><path d="M1562.11,247.05l5.29-.24.4,9.15-5.29.24c-1.27,8-7.19,12.36-16.87,12.79l-2.23.1-.47-10.59,2.94-.13c5.09-.23,6.94-2.35,6.78-5.91s-2.18-5.5-7.28-5.28c-14.64.65-14.38,22.56-34.73,23.47-9.67.43-16.07-3.47-18.05-11.34l-5.19.23-.41-9.15,5.2-.23c1.26-8.12,7.3-12.48,17-12.91l4.89-.21.47,10.58-5.6.25c-5.08.22-6.82,2.55-6.66,6.12s2.09,5.71,7.18,5.48c14.65-.65,14.39-22.55,34.73-23.45C1553.75,235.59,1560,239.28,1562.11,247.05Z" class="cls-4"/><path d="M1545.94,100.15a42.18,42.18,0,0,0,44,40.25l-1.88-42.12Z" class="cls-3"/><path d="M1599.71,360a42.16,42.16,0,0,0-40.25,44l42.13-1.87Z" class="cls-3"/><path d="M1508.86,406.2a42.15,42.15,0,0,0-44-40.25l1.87,42.12Z" class="cls-3"/><path d="M1495.35,102.4l-42.12,1.88,1.87,42.12A42.17,42.17,0,0,0,1495.35,102.4Z" class="cls-3"/><path d="M1523.65,168.75a18.6,18.6,0,1,1,17.75-19.41A18.6,18.6,0,0,1,1523.65,168.75Z" class="cls-3"/><path d="M1532.82,374.77a18.6,18.6,0,1,1,17.75-19.41A18.6,18.6,0,0,1,1532.82,374.77Z" class="cls-3"/><g class="cls-5"><polygon points="1600.9 386.57 1600.12 369.03 1544.35 100.22 1453.23 104.28 1455.1 146.4 1466.74 408.07 1505.6 406.34 1600.9 386.57"/></g><rect width="134.98" height="304.09" x="1432.23" y="94.23" class="cls-3" transform="translate(-18.76 309.81) rotate(-11.72)"/><rect width="119.66" height="288.78" x="1439.9" y="101.9" class="cls-4" transform="translate(-18.76 309.81) rotate(-11.72)"/><path d="M1511,300.75A55.63,55.63,0,1,1,1554.19,235,55.64,55.64,0,0,1,1511,300.75Z" class="cls-3"/><path d="M1533,234.7l5.19-1.08,1.86,9-5.19,1.08c0,8.11-5.12,13.34-14.62,15.31l-2.18.46-2.16-10.38,2.89-.6c5-1,6.47-3.43,5.75-6.91s-3-5.09-8-4.05c-14.36,3-10.61,24.56-30.56,28.7-9.47,2-16.41-.86-19.62-8.32l-5.09,1.06-1.86-9,5.09-1.06c0-8.21,5.22-13.47,14.69-15.44l4.8-1,2.15,10.37-5.49,1.14c-5,1-6.33,3.61-5.6,7.1s3,5.31,8,4.27c14.36-3,10.61-24.55,30.55-28.69C1522.92,224.72,1529.72,227.36,1533,234.7Z" class="cls-4"/><path d="M1493.63,92.26A42.16,42.16,0,0,0,1543.48,125l-8.56-41.28Z" class="cls-3"/><path d="M1588.13,340.16A42.16,42.16,0,0,0,1555.4,390l41.29-8.57Z" class="cls-3"/><path d="M1505.82,400.3A42.17,42.17,0,0,0,1456,367.58l8.56,41.28Z" class="cls-3"/><path d="M1444,102.55l-41.29,8.56,8.57,41.28A42.16,42.16,0,0,0,1444,102.55Z" class="cls-3"/><path d="M1482.56,163.53a18.6,18.6,0,1,1,14.43-22A18.6,18.6,0,0,1,1482.56,163.53Z" class="cls-3"/><path d="M1524.45,365.46a18.61,18.61,0,1,1,14.43-22A18.6,18.6,0,0,1,1524.45,365.46Z" class="cls-3"/><g class="cls-5"><polygon points="1444.56 102.44 1402.75 111.11 1464.53 408.86 1516.8 398.02 1588.01 358.05 1444.56 102.44"/></g><rect width="134.98" height="304.09" x="1375.42" y="103.12" class="cls-3" transform="translate(59.73 738.81) rotate(-29.3)"/><rect width="119.66" height="288.78" x="1383.08" y="110.78" class="cls-4" transform="translate(59.73 738.81) rotate(-29.3)"/><path d="M1470.13,303.68a55.63,55.63,0,1,1,21.29-75.74A55.62,55.62,0,0,1,1470.13,303.68Z" class="cls-3"/><path d="M1471.14,234.07l4.61-2.59,4.49,8-4.62,2.59c2.47,7.73-.85,14.27-9.31,19l-2,1.09-5.19-9.24,2.57-1.45c4.45-2.49,5.14-5.21,3.4-8.32s-4.43-3.93-8.87-1.44c-12.79,7.18-2.7,26.62-20.46,36.59-8.44,4.74-15.91,4.14-21.22-2l-4.53,2.54-4.49-8,4.54-2.55c-2.52-7.82.9-14.42,9.34-19.16l4.27-2.39,5.19,9.23-4.9,2.75c-4.43,2.49-4.94,5.35-3.19,8.46s4.44,4.16,8.88,1.67c12.8-7.18,2.7-26.61,20.46-36.58C1458.52,227.61,1465.79,228.07,1471.14,234.07Z" class="cls-4"/><path d="M1390.58,110.18A42.16,42.16,0,0,0,1448,126.31l-20.64-36.77Z" class="cls-3"/><path d="M1555.54,318a42.18,42.18,0,0,0-16.14,57.41l36.78-20.64Z" class="cls-3"/><path d="M1495.24,400.15A42.16,42.16,0,0,0,1437.83,384l20.64,36.77Z" class="cls-3"/><path d="M1346.41,135l-36.77,20.64,20.64,36.77A42.17,42.17,0,0,0,1346.41,135Z" class="cls-3"/><path d="M1401.55,181.47a18.61,18.61,0,1,1,7.12-25.33A18.61,18.61,0,0,1,1401.55,181.47Z" class="cls-3"/><path d="M1502.48,361.31a18.61,18.61,0,1,1,7.11-25.33A18.61,18.61,0,0,1,1502.48,361.31Z" class="cls-3"/><g class="cls-5"><polygon points="1358.05 128.43 1309.64 155.6 1458.47 420.79 1477.12 410.32 1559.61 326.27 1358.05 128.43"/></g><rect width="134.98" height="304.09" x="1321.74" y="116.36" class="cls-3" transform="translate(224.54 1071.83) rotate(-45.53)"/><rect width="119.66" height="288.78" x="1329.41" y="124.02" class="cls-4" transform="translate(224.54 1071.84) rotate(-45.53)"/><path d="M1428.93,307.37a55.63,55.63,0,1,1-.73-78.66A55.64,55.64,0,0,1,1428.93,307.37Z" class="cls-3"/><path d="M1410.44,240.26l3.71-3.78,6.53,6.42-3.71,3.78c4.54,6.73,3.17,13.94-3.62,20.86l-1.56,1.6-7.57-7.43,2.07-2.11c3.57-3.63,3.47-6.44.93-8.94s-5.35-2.54-8.92,1.1c-10.27,10.47,4.85,26.32-9.41,40.85-6.78,6.91-14.12,8.42-20.93,4l-3.65,3.71-6.54-6.41,3.65-3.72c-4.61-6.8-3.17-14.1,3.61-21l3.43-3.5,7.56,7.42-3.93,4c-3.56,3.63-3.25,6.51-.7,9s5.43,2.75,9-.88c10.28-10.48-4.85-26.31,9.42-40.85C1396.51,237.58,1403.62,236,1410.44,240.26Z" class="cls-4"/><path d="M1298.46,143.83a42.16,42.16,0,0,0,59.63-.57L1328,113.73Z" class="cls-3"/><path d="M1514.93,297.21a42.16,42.16,0,0,0,.55,59.63L1545,326.75Z" class="cls-3"/><path d="M1480,393a42.16,42.16,0,0,0-59.62.56l30.09,29.53Z" class="cls-3"/><path d="M1263,180l-29.53,30.09,30.08,29.53A42.16,42.16,0,0,0,1263,180Z" class="cls-3"/><path d="M1328.92,209.21a18.6,18.6,0,1,1-.25-26.31A18.61,18.61,0,0,1,1328.92,209.21Z" class="cls-3"/><path d="M1476.1,353.67a18.61,18.61,0,1,1-.25-26.31A18.61,18.61,0,0,1,1476.1,353.67Z" class="cls-3"/><path d="M817.18,969.31,583.47,946.77S551.81,942.65,526,954l-87.54,44.26s-8.36,4-2.38,9.84c0,0,4.27,7.23,13.84,4.3,0,0,11.31-4.47,60.17-35.2,0,0,30.4-25.64,73.18-18.65l230.23,30.17Z" class="cls-10"/><path d="M464.07,902.06,689.7,967s31,7.8,50.82,27.8l65.14,73.34s6.3,6.81-1.39,10c0,0-6.63,5.18-14.46-1.08,0,0-8.88-8.31-43-54.85,0,0-18.85-35-61.21-44.24l-225.2-56.56Z" class="cls-10"/><path d="M701.74,942c-45.16,4.33-60.42-1.41-60.42-1.41s-16.29-.27-56.7-20.91c0,0-32.7-15.25-120.53-17.77l-4.68,24.6s9.42,4,9.06,11.53c-4.06,19.42-6.05,46.3,3.95,64.27,16.61,29.93,66.65,36.65,95.91,27.74,0,0,31.62-9.6,50.9-51.69,0,0,5.26-14.25,17.18-12S648,983.86,648,983.86c2.45,46.24,28.34,66.78,28.34,66.78,24,19,73,31.2,99.4,9.47,15.88-13,23.94-38.77,27.28-58.33,2.45-7.18,12.67-7.39,12.67-7.39l4.68-24.6C737.77,939.85,701.74,942,701.74,942Zm-120,68.84s-15.16,15.89-48.81,14c0,0-40.83-.84-50.84-30.15,0,0-11.11-34.73,9.88-70,0,0,5.72-13.83,60.8-4,0,0,55.41,11.59,55.15,36.53C607.92,957.21,608.24,984.71,581.74,1010.87Zm187.78,38.58c-20.09,23.57-58.35,9.35-58.35,9.35-32-10.6-40.27-30.94-40.27-30.94-15-34.08-4.63-59.54-4.63-59.54C675.21,945,731,954.62,731,954.62c54.8,11.13,55.1,26.12,55.1,26.12C792.61,1021.21,769.52,1049.45,769.52,1049.45Z" class="cls-42"/><g class="cls-43"><polygon points="680.11 1053.4 680.12 1053.41 680.13 1053.41 680.11 1053.4" class="cls-44"/></g><g class="cls-45"><path d="M769.52,1049.45s23.09-28.24,16.59-68.71c0,0-.3-15-55.1-26.12,0,0-55.8-9.58-64.74,13.7,0,0-10.39,25.46,4.63,59.54,0,0,8.27,20.34,40.27,30.94C711.17,1058.8,749.43,1073,769.52,1049.45Z" class="cls-6"/></g><g class="cls-45"><path d="M532.93,1024.85c33.65,1.91,48.81-14,48.81-14,26.5-26.16,26.18-53.66,26.18-53.66.26-24.94-55.15-36.53-55.15-36.53-55.08-9.8-60.8,4-60.8,4-21,35.26-9.88,70-9.88,70C492.1,1024,532.93,1024.85,532.93,1024.85Z" class="cls-6"/></g><path d="M1653,438.16c1.61-4.05,5.52-6.31,8.71-5l18.66,7.42c3.22,1.3,4.49,5.6,2.87,9.65l-9,22.63c-1.61,4.05-5.54,6.31-8.73,5l-18.67-7.43c-3.17-1.28-4.49-5.61-2.85-9.65Z" class="cls-46"/><polygon points="1659.44 465.86 1674.57 471.89 1579.45 710.51 1564.33 704.49 1659.44 465.86" class="cls-17"/><polygon points="1644.31 459.84 1659.44 465.86 1564.33 704.49 1549.19 698.45 1644.31 459.84" class="cls-13"/><path d="M1545.17,752.86l34-41.66c2.26-5.69-2.61-13.15-10.9-16.68s-16.83-1.75-19.08,3.93h0l-4,54.41Z" class="cls-47"/><path d="M1563,731c-1.67-3.08-3.81-5.43-6.57-6.61a13.34,13.34,0,0,0-9.19-.07l-2.09,28.51h0Z" class="cls-10"/><rect width="11.17" height="32.58" x="1655.92" y="444.39" class="cls-48" transform="translate(618.71 1833.78) rotate(-68.28)"/><path d="M730.25,393.3l-1.42,7.15.82-3.92L706,522.74,704,519c-2.48-3.51-8.45-14.1.65-24.64.61-3.26,1.19-6.53,1.8-9.79,1.49-8,1.62-9.07,3.16-17,2-10,3.76-20.14,5.65-30.2,1.8-9.58,3.87-19.18,5.34-28.83,1-6.57,3.09-13,3.52-19.62.27-4,.74-16.09-7.32-17.6l-3.23-.61,5.85-37.84S740.05,334.75,730.25,393.3Z" class="cls-10"/><polygon points="644.63 660.98 646.99 661.42 642.93 670.12 642.31 660.53 644.63 660.98" class="cls-49"/><path d="M696.9,311.94c4.84-2.23,13.07-.19,13.07-.19s8.43,1.07,12.12,4.92c0,0-32.79,233.13-75.46,346.28l-2.28-.43-2.28-.44C643.19,541.18,696.9,311.94,696.9,311.94Z" class="cls-13"/><path d="M722.09,316.67c-4.44,31.52-4.44,31.52-12.15,77l-29.53-5.52c9.21-45.18,16.49-76.18,16.49-76.18,4.84-2.23,13.07-.19,13.07-.19S718.4,312.82,722.09,316.67Z" class="cls-49"/><path d="M706.33,414.51c-11.48,65.13-28.43,150.22-48.23,214.56l-14.46-2.71c4.79-67.15,19.77-152.6,32.58-217.49Z" class="cls-49"/><path d="M710,311.75h0L695.2,390.88l-14.79-2.76c9.21-45.18,16.49-76.18,16.49-76.18C701.74,309.71,710,311.75,710,311.75Z" class="cls-10"/><path d="M691.31,411.7l-40.45,216-7.22-1.35c4.79-67.15,19.77-152.6,32.58-217.49Z" class="cls-10"/><path d="M662.28,615c.49-1.7,1-3.4,1.47-5.12h0C663.25,611.6,662.77,613.32,662.28,615Z" class="cls-6"/><path d="M643.64,626.36c.35-4.9.76-9.92,1.22-15h0c-1.62,18.19-2.62,35.34-2.76,50.72l2.28.44,2.28.43c3.91-10.37,7.73-21.76,11.46-33.88Z" class="cls-13"/><path d="M661.47,617.81c-1,3.25-1.91,6.44-2.87,9.6C659.56,624.25,660.52,621.06,661.47,617.81Z" class="cls-6"/><path d="M1539,1327.63l-200.53-89.92a18.56,18.56,0,0,1-9.35-24.54l134-298.81a18.57,18.57,0,0,1,24.54-9.35l200.54,89.92a18.58,18.58,0,0,1,9.35,24.55l-134,298.81A18.57,18.57,0,0,1,1539,1327.63Z" class="cls-50"/><rect width="196.72" height="65.59" x="1463.94" y="974.36" class="cls-11" rx="1.42" ry="1.42" transform="translate(548.83 -551.06) rotate(24.15)"/><path d="M1659.84,1015,1491.6,939.51a6.19,6.19,0,0,0-8.16,3.11l-10.33,23h0l4.75-10.61a6.19,6.19,0,0,1,8.16-3.11l168.24,75.44a6.2,6.2,0,0,1,3.1,8.16l-4.76,10.61h0l10.33-23A6.2,6.2,0,0,0,1659.84,1015Z" class="cls-17"/><rect width="37.35" height="37.35" x="1416.78" y="1084.56" class="cls-51" rx=".89" ry=".89" transform="translate(577.05 -490.76) rotate(24.15)"/><rect width="37.35" height="37.35" x="1463.27" y="1105.41" class="cls-51" rx=".89" ry=".89" transform="translate(589.65 -507.95) rotate(24.15)"/><rect width="37.35" height="37.35" x="1509.76" y="1126.26" class="cls-51" rx=".89" ry=".89" transform="translate(602.24 -525.14) rotate(24.15)"/><rect width="37.35" height="37.35" x="1392.95" y="1137.71" class="cls-51" rx=".89" ry=".89" transform="matrix(0.91, 0.41, -0.41, 0.91, 596.71, -476.35)"/><rect width="37.35" height="37.35" x="1439.44" y="1158.55" class="cls-51" rx=".89" ry=".89" transform="translate(609.29 -493.54) rotate(24.15)"/><rect width="37.35" height="37.35" x="1485.93" y="1179.4" class="cls-51" rx=".89" ry=".89" transform="translate(621.92 -510.75) rotate(24.15)"/><rect width="37.35" height="37.35" x="1440.61" y="1031.42" class="cls-51" rx=".89" ry=".89" transform="translate(557.38 -505.15) rotate(24.15)"/><rect width="37.35" height="37.35" x="1487.1" y="1052.27" class="cls-51" rx=".89" ry=".89" transform="translate(569.97 -522.34) rotate(24.15)"/><rect width="37.35" height="37.35" x="1533.59" y="1073.11" class="cls-51" rx=".89" ry=".89" transform="translate(582.57 -539.54) rotate(24.15)"/><rect width="37.35" height="37.35" x="1369.12" y="1190.85" class="cls-51" rx=".89" ry=".89" transform="translate(616.38 -461.96) rotate(24.15)"/><rect width="37.35" height="37.35" x="1415.61" y="1211.7" class="cls-51" rx=".89" ry=".89" transform="translate(628.96 -479.14) rotate(24.15)"/><rect width="37.35" height="37.35" x="1462.1" y="1232.55" class="cls-51" rx=".89" ry=".89" transform="translate(641.56 -496.34) rotate(24.15)"/><rect width="37.35" height="37.35" x="1556.25" y="1147.1" class="cls-52" rx=".89" ry=".89" transform="translate(614.84 -542.34) rotate(24.15)"/><rect width="37.35" height="37.35" x="1580.08" y="1093.96" class="cls-53" rx=".89" ry=".89" transform="translate(595.18 -556.74) rotate(24.15)"/><rect width="37.35" height="95.59" x="1520.51" y="1197.7" class="cls-11" rx=".89" ry=".89" transform="translate(644.32 -520.73) rotate(24.15)"/><g class="cls-21"><polygon points="1522.91 953.55 1533.96 1030.39 1565.9 1044.71 1556.8 968.74 1522.91 953.55" class="cls-6"/></g><g class="cls-21"><polygon points="1571.48 975.43 1582.54 1052.27 1614.47 1066.59 1605.37 990.63 1571.48 975.43" class="cls-6"/></g><path d="M1013.64,365.57a14.76,14.76,0,0,1-20.88-.22L885.63,255.92l24.1-17.62,104.13,106.39a14.78,14.78,0,0,1-.22,20.88Z" class="cls-6"/><path d="M833.78,74.76A108.34,108.34,0,1,0,941,184.24,108.32,108.32,0,0,0,833.78,74.76Zm-2,191.17a82.84,82.84,0,1,1,83.73-82A82.85,82.85,0,0,1,831.75,265.93Z" class="cls-42"/><path d="M945.13,264.05,1020,340.51a21.77,21.77,0,0,1-.33,30.78h0a21.77,21.77,0,0,1-30.77-.33L914,294.5Z" class="cls-42"/><polygon points="931.38 312.32 924.4 305.1 955.5 274.65 962.48 281.88 931.38 312.32" class="cls-6"/><g class="cls-45"><path d="M910.62,183.92a78,78,0,1,1-77.14-78.83A78,78,0,0,1,910.62,183.92Z" class="cls-54"/></g><path d="M833.6,92.44a90.66,90.66,0,1,0,89.69,91.61A90.65,90.65,0,0,0,833.6,92.44Zm-1.79,168.62a78,78,0,1,1,78.8-77.15A78,78,0,0,1,831.81,261.06Z" class="cls-6"/><g class="cls-21"><path d="M832.91,118.69c-.62,0-1.21.06-1.82.07l.72,45.31c.21,0,.41,0,.62,0a22.92,22.92,0,0,1,21.71,16.47l43.57-13A68.39,68.39,0,0,0,832.91,118.69Z" class="cls-6"/></g></g></g></svg>