<svg xmlns="http://www.w3.org/2000/svg" viewBox="0 0 320.44 458.33"><defs><style>.cls-1{fill:#e1e6e9;}.cls-2{fill:#ebf0f3;}.cls-3{fill:#64798a;}.cls-4{fill:#44c4a1;}.cls-5{fill:#27a2db;}.cls-6{fill:#e56353;}</style></defs><title>Asset 1</title><g id="Layer_2" data-name="Layer 2"><g id="Layer_1-2" data-name="Layer 1"><rect class="cls-1" width="320.44" height="458.33"/><rect class="cls-2" width="320.44" height="441.67"/><path class="cls-3" d="M22.91,155.08v177.4H298.08V155.08ZM289.74,186H233V163.41h56.74ZM159.53,301.61h65.14v22.53H159.53Zm0-8.34v-99h65.14v99Zm0-107.32V163.41h65.14V186ZM233,194.29h56.74v99H233Zm-81.8-30.88V186h-120V163.41Zm-120,30.88h120V324.14h-120ZM233,324.14V301.61h56.74v22.53Z"/><rect class="cls-4" x="27.07" y="33.99" width="76.03" height="8.33"/><rect class="cls-5" x="220.16" y="367.48" width="76.02" height="8.33"/><rect class="cls-6" x="100.27" y="118.78" width="119.89" height="8.33"/><rect class="cls-3" x="27.07" y="63.67" width="102.4" height="8.33"/></g></g></svg>