<svg xmlns="http://www.w3.org/2000/svg" viewBox="0 0 361.53 274.16"><defs><style>.cls-1{isolation:isolate}.cls-2{fill:#fdd327}.cls-3{fill:#4c4c4d}.cls-4{mix-blend-mode:darken}.cls-5{fill:#e6ac23}.cls-6{fill:#f7f7f7}.cls-7{fill:#69cce8}.cls-8{fill:#e05b67}.cls-9{fill:#e2e2e2}</style></defs><title>Asset 1</title><g class="cls-1"><g id="Layer_2" data-name="Layer 2"><g id="Layer_1-2" data-name="Layer 1"><path d="M361.46,95.44A14.24,14.24,0,0,0,347.38,82H68.6a14,14,0,0,0-9.26,3.55h0l0,0a.67.67,0,0,0-.15.13h0a14.48,14.48,0,0,0-3.43,4.62c-.06.14-.09.29-.14.42a12.79,12.79,0,0,0-.81,2.35,13,13,0,0,0-.26,2.36h0c0,.23-.09.44-.09.67V260A14,14,0,0,0,59.2,270.4l-.05,0c.11.1.23.18.36.28s.07.09.11.11h0a13.91,13.91,0,0,0,9,3.34H347.38a12.31,12.31,0,0,0,4.5-.81c.23-.07.48-.12.7-.21a17.36,17.36,0,0,0,2.19-1.12.07.07,0,0,1,.05,0,14.16,14.16,0,0,0,6.71-12V95.38Z" class="cls-2"/><rect width="307.09" height="39.8" x="54.44" y="200.41" class="cls-3"/><g class="cls-4"><path d="M357.86,159.81,331,82H68.6a14,14,0,0,0-9.26,3.55h0l0,0a.67.67,0,0,0-.15.13h0a14.48,14.48,0,0,0-3.43,4.62c-.06.14-.09.29-.14.42a12.79,12.79,0,0,0-.81,2.35,13,13,0,0,0-.26,2.36c0,.23-.09.44-.09.67V260A14,14,0,0,0,59.2,270.4l-.05,0c.11.1.23.18.36.28s.07.09.11.11h0a13.91,13.91,0,0,0,9,3.34h44.84l227-78.37a27.27,27.27,0,0,0,4.91-2.27,23,23,0,0,0,2.68-1.84l1-.69s1.34-1.17,1.71-1.52l.46-.24,2.35-2.92A28.12,28.12,0,0,0,357.86,159.81Z" class="cls-5"/></g><path d="M290.7,8.91A14.22,14.22,0,0,0,273,.76h0L9.51,91.73h0a14.07,14.07,0,0,0-7.58,6.4h0a.09.09,0,0,0,0,.05,1.16,1.16,0,0,0-.11.16h0a14,14,0,0,0-1.73,5.49,3.49,3.49,0,0,0,0,.46,13.59,13.59,0,0,0,0,2.47,12.61,12.61,0,0,0,.52,2.31h0c.06.22.06.44.14.67L54.21,264.66A14,14,0,0,0,62.1,273l0,.05c.14.06.28.08.43.14l.15.08,0,0a13.91,13.91,0,0,0,9.55.24l263.51-91a13.08,13.08,0,0,0,2.48-1.16,12.6,12.6,0,0,0,1.51-1.09,4.86,4.86,0,0,0,.59-.42A14.39,14.39,0,0,0,342,178a.14.14,0,0,1,0,0,14.08,14.08,0,0,0,2.42-13.51L291,9.52l-.24-.69Z" class="cls-6"/><path d="M283.06,66.1a7.1,7.1,0,0,1-4.38,9L234.09,90.5a7.09,7.09,0,0,1-9-4.38L214.31,54.91a7.1,7.1,0,0,1,4.38-9l44.59-15.39a7.08,7.08,0,0,1,9,4.37Z" class="cls-2"/><path d="M141.28,105.87a31.41,31.41,0,1,1-39.95-19.43A31.42,31.42,0,0,1,141.28,105.87Z" class="cls-7"/><path d="M71.23,130.05A39,39,0,0,1,73,100.25a31.05,31.05,0,0,0-15.14,1.2,31.4,31.4,0,1,0,20.5,59.37A31,31,0,0,0,91,152.43,39,39,0,0,1,71.23,130.05Z" class="cls-8"/><polygon points="117.58 228.06 73.58 243.24 66.51 222.79 110.51 207.59 117.58 228.06" class="cls-9"/><rect width="46.55" height="21.63" x="134.7" y="191.83" class="cls-9" transform="translate(-57.51 62.69) rotate(-19.06)"/><polygon points="249.45 182.5 205.46 197.71 198.39 177.26 242.4 162.06 249.45 182.5" class="cls-9"/><rect width="46.55" height="21.63" x="266.59" y="146.3" class="cls-9" transform="translate(-35.41 103.25) rotate(-19.06)"/></g></g></g></svg>