<svg xmlns="http://www.w3.org/2000/svg" viewBox="0 0 286.31 367.54"><defs><style>.cls-1{fill:#f5f5f5;}.cls-2{fill:#ced5e0;}.cls-3{fill:#ff7058;}.cls-4{fill:#e6e9ee;}.cls-5{fill:#3c5f42;}</style></defs><title>Asset 2</title><g id="Layer_2" data-name="Layer 2"><g id="Ñëîé_1" data-name="Ñëîé 1"><polygon class="cls-1" points="286.31 20.46 265.94 0 245.48 20.46 225.01 0 204.55 20.46 184.08 0 163.62 20.46 143.15 0 122.69 20.46 122.69 20.46 102.22 0 81.76 20.46 61.29 0 40.83 20.46 20.36 0 0 20.46 0 347.07 0 347.07 0 347.07 20.36 367.54 40.83 347.07 40.83 347.07 40.83 347.07 40.83 347.07 61.29 367.54 81.76 347.07 81.76 347.07 81.76 347.07 81.76 347.07 102.22 367.54 122.69 347.07 122.69 347.07 122.69 347.07 122.69 347.07 143.15 367.54 163.62 347.07 163.62 347.07 163.62 347.07 163.62 347.07 184.08 367.54 204.55 347.07 204.55 347.07 204.55 347.07 204.55 347.07 225.01 367.54 245.48 347.07 245.48 347.07 245.48 347.07 245.48 347.07 265.94 367.54 286.31 347.07 286.31 347.07 286.31 347.07 286.31 20.46"/><rect class="cls-2" x="14.06" y="92.99" width="258.28" height="5.25"/><rect class="cls-2" x="14.06" y="275.91" width="258.28" height="5.25"/><path class="cls-3" d="M62.65,56.09c0,5.82-2.33,9.46-6.84,11.21l9.17,13h-9.9l-8-11.5H41.39v11.5h-8V44.14H47.07c5.54,0,9.61.88,11.94,2.77C61.49,48.8,62.65,51.86,62.65,56.09ZM52.9,60.45c1-.87,1.45-2.33,1.45-4.22s-.58-3.35-1.6-3.93-2.77-1-5.39-1h-6V61.91h5.83C50,61.77,51.88,61.33,52.9,60.45Z"/><path class="cls-3" d="M96.88,44.14v7.14H79v7.43H95.13v6.84H79V73h18.5v7.13H71V44H96.88Z"/><path class="cls-3" d="M121.19,73.12A12.33,12.33,0,0,0,131,68.46l5.1,5.25c-4.08,4.66-8.89,6.84-14.42,6.84s-10.19-1.75-13.69-5.24a17.48,17.48,0,0,1-5.39-13.25,18.66,18.66,0,0,1,18.94-18.79A18.8,18.8,0,0,1,136.34,50l-5,5.68a11.55,11.55,0,0,0-9.47-4.81,11,11,0,0,0-7.72,2.92,10.32,10.32,0,0,0-3.2,8,10.73,10.73,0,0,0,3.06,8A8.44,8.44,0,0,0,121.19,73.12Z"/><path class="cls-3" d="M168.38,44.14v7.14H150.46v7.43h16.17v6.84H150.46V73H169v7.13H142.45V44h25.93Z"/><path class="cls-3" d="M176.09,44.14h8V80.26h-8Z"/><path class="cls-3" d="M217.74,47.35c2.48,2.18,3.79,5.39,3.79,9.9S220.22,65,217.6,67s-6.56,3.06-11.95,3.06h-4.8v10h-8V44h12.67C211.19,44.14,215.27,45.16,217.74,47.35Zm-5.82,14.27c1-1,1.45-2.62,1.45-4.81,0-2-.58-3.49-1.89-4.36a10.39,10.39,0,0,0-5.83-1.32H201V63.22h5.39C209.15,63.22,210.9,62.64,211.92,61.62Z"/><path class="cls-3" d="M243.08,51.13V80.26h-8V51.13H224.88v-7h28.39v7Z"/><rect class="cls-4" x="30.44" y="119.54" width="77.98" height="7.03"/><rect class="cls-4" x="30.44" y="132.97" width="55.41" height="7.03"/><rect class="cls-4" x="30.44" y="173.59" width="77.98" height="7.03"/><rect class="cls-4" x="30.44" y="187.02" width="55.41" height="7.03"/><rect class="cls-4" x="30.44" y="227.53" width="77.98" height="7.03"/><rect class="cls-4" x="30.44" y="240.97" width="55.41" height="7.03"/><rect class="cls-4" x="223.54" y="119.54" width="26.34" height="7.03"/><rect class="cls-4" x="223.54" y="173.59" width="26.34" height="7.03"/><rect class="cls-4" x="223.54" y="227.53" width="26.34" height="7.03"/><path class="cls-5" d="M129.51,302.89v15.84H125.1V302.89h-5.56v-3.78h15.53v3.78Z"/><path class="cls-5" d="M154.28,316.11a10.32,10.32,0,0,1-7.35,2.94,9.92,9.92,0,0,1-7.35-2.94,9.82,9.82,0,0,1-2.93-7.24,9.65,9.65,0,0,1,2.93-7.24,10.32,10.32,0,0,1,7.35-2.94,9.88,9.88,0,0,1,7.35,2.94,9.66,9.66,0,0,1,2.94,7.24A10.23,10.23,0,0,1,154.28,316.11Zm-1.58-7.24a6.32,6.32,0,0,0-1.68-4.51,5.36,5.36,0,0,0-4.09-1.89,5.45,5.45,0,0,0-4.2,1.89,6.89,6.89,0,0,0,0,9,5.45,5.45,0,0,0,4.2,1.89,5.07,5.07,0,0,0,4.09-1.89A6.32,6.32,0,0,0,152.7,308.87Z"/><path class="cls-5" d="M168.66,302.89v15.84h-4.41V302.89h-5.56v-3.78h15.53v3.78Z"/><path class="cls-5" d="M190.07,318.84l-1.79-4.2H180.1l-1.79,4.2h-4.62l8.5-19.63h4.2l8.5,19.63Zm-6-13.85-2.52,5.66h4.94Z"/><path class="cls-5" d="M197,318.84V299.21h4.41V315h8.4v3.88Z"/></g></g></svg>